<?xml version="1.0" encoding="utf-8"?>
<!-- Generator: Adobe Illustrator 15.1.0, SVG Export Plug-In . SVG Version: 6.00 Build 0)  -->
<!DOCTYPE svg PUBLIC "-//W3C//DTD SVG 1.1//EN" "http://www.w3.org/Graphics/SVG/1.1/DTD/svg11.dtd">
<svg version="1.1" id="Layer_1" xmlns="http://www.w3.org/2000/svg" xmlns:xlink="http://www.w3.org/1999/xlink" x="0px" y="0px"
	 width="300px" height="131px" viewBox="0 158.5 300 131" enable-background="new 0 158.5 300 131" xml:space="preserve">
<path fill="#E3CCAF" stroke="#E3CCAF" stroke-miterlimit="10" d="M82.012,201.095c-0.029,1.46-0.344,2.772-0.946,3.933
	c-0.603,1.16-1.434,2.15-2.494,2.967c-1.06,0.816-2.307,1.439-3.741,1.869c-1.434,0.433-2.996,0.646-4.687,0.646
	c-0.659,0-1.419-0.037-2.279-0.109c-0.86-0.071-1.741-0.176-2.645-0.32c-0.903-0.144-1.784-0.339-2.644-0.583
	c-0.859-0.241-1.62-0.522-2.279-0.837c0.143-0.315,0.301-0.709,0.472-1.183c0.173-0.472,0.345-0.854,0.516-1.139l0.258,0.085
	c1.461,0.459,2.909,0.847,4.343,1.16c1.433,0.317,2.938,0.474,4.515,0.474c0.974,0,2.006-0.135,3.095-0.408
	c1.089-0.271,2.093-0.694,3.01-1.268c0.917-0.573,1.677-1.306,2.279-2.193c0.603-0.888,0.904-1.962,0.904-3.225
	c0-0.344-0.115-0.868-0.344-1.57s-0.688-1.403-1.375-2.106c-0.688-0.703-1.677-1.326-2.967-1.869
	c-1.29-0.546-2.996-0.818-5.117-0.818c-0.86,0-1.813-0.113-2.859-0.344c-1.047-0.23-2.028-0.604-2.945-1.119
	c-0.917-0.516-1.684-1.188-2.3-2.02c-0.617-0.83-0.924-1.849-0.924-3.052v-0.173c0.057-1.978,0.989-3.525,2.795-4.644
	c1.806-1.116,4.271-1.704,7.395-1.763c0.717,0,1.383,0.016,2,0.043c0.616,0.03,1.225,0.103,1.827,0.216
	c0.602,0.115,1.21,0.267,1.828,0.452c0.616,0.188,1.268,0.437,1.955,0.753l-0.73,2.321c-0.945-0.487-1.935-0.875-2.967-1.16
	c-1.032-0.288-2.336-0.432-3.913-0.432c-1.09,0-2.093,0.086-3.01,0.258c-0.917,0.174-1.713,0.438-2.386,0.797
	c-0.673,0.359-1.203,0.811-1.591,1.354c-0.387,0.546-0.58,1.175-0.58,1.892c0,0.688,0.207,1.297,0.623,1.827
	c0.416,0.531,0.939,0.982,1.57,1.356c0.63,0.371,1.333,0.65,2.107,0.837c0.773,0.187,1.519,0.279,2.235,0.279h0.387
	c1.29,0,2.624,0.173,3.999,0.515c1.375,0.345,2.629,0.877,3.763,1.593c1.132,0.718,2.057,1.62,2.773,2.708
	c0.717,1.089,1.075,2.365,1.075,3.828v0.171H82.012z"/>
<path fill="#E3CCAF" stroke="#E3CCAF" stroke-miterlimit="10" d="M101.364,210.338c-1.577,0-3.046-0.294-4.407-0.882
	c-1.362-0.588-2.545-1.375-3.547-2.365c-1.003-0.987-1.792-2.149-2.365-3.481c-0.574-1.334-0.859-2.746-0.859-4.236v-17.671h2.494
	v17.671c0,1.177,0.215,2.278,0.645,3.31c0.43,1.033,1.032,1.93,1.806,2.688c0.774,0.76,1.69,1.363,2.752,1.808
	c1.06,0.445,2.221,0.667,3.483,0.667c1.232,0,2.401-0.222,3.504-0.667c1.103-0.444,2.063-1.048,2.881-1.808
	c0.817-0.758,1.462-1.654,1.935-2.688c0.473-1.031,0.71-2.133,0.71-3.31v-17.671h2.493v17.671c0,1.49-0.309,2.902-0.925,4.236
	c-0.616,1.332-1.447,2.492-2.494,3.481c-1.046,0.99-2.272,1.777-3.676,2.365C104.388,210.044,102.912,210.338,101.364,210.338z"/>
<path fill="#E3CCAF" stroke="#E3CCAF" stroke-miterlimit="10" d="M146.131,181.702v28.765l-20.208-23.088v22.659h-2.494V181.1
	l20.209,22.918v-22.314L146.131,181.702L146.131,181.702z"/>
<path fill="#E3CCAF" stroke="#E3CCAF" stroke-miterlimit="10" d="M176.555,201.095c-0.028,1.46-0.344,2.772-0.945,3.933
	c-0.601,1.16-1.434,2.15-2.494,2.967s-2.307,1.439-3.738,1.869c-1.435,0.433-2.996,0.646-4.688,0.646
	c-0.66,0-1.42-0.037-2.279-0.109c-0.86-0.071-1.741-0.176-2.646-0.32c-0.901-0.144-1.782-0.339-2.642-0.583
	c-0.859-0.241-1.62-0.522-2.279-0.837c0.143-0.315,0.301-0.709,0.472-1.183c0.172-0.472,0.346-0.854,0.517-1.139l0.258,0.085
	c1.462,0.459,2.91,0.847,4.342,1.16c1.434,0.317,2.938,0.474,4.516,0.474c0.975,0,2.007-0.135,3.096-0.408
	c1.089-0.271,2.092-0.694,3.011-1.268c0.917-0.573,1.676-1.306,2.278-2.193c0.604-0.888,0.904-1.962,0.904-3.225
	c0-0.344-0.116-0.868-0.346-1.57s-0.688-1.403-1.377-2.106c-0.686-0.703-1.676-1.326-2.965-1.869
	c-1.29-0.546-2.996-0.818-5.118-0.818c-0.859,0-1.812-0.113-2.858-0.344s-2.027-0.604-2.945-1.119
	c-0.919-0.516-1.684-1.188-2.299-2.02c-0.618-0.83-0.926-1.849-0.926-3.052v-0.173c0.057-1.978,0.988-3.525,2.796-4.644
	c1.806-1.116,4.271-1.704,7.396-1.763c0.714,0,1.382,0.016,1.998,0.043c0.615,0.03,1.225,0.103,1.828,0.216
	c0.602,0.115,1.212,0.267,1.828,0.452c0.615,0.188,1.267,0.437,1.956,0.753l-0.731,2.321c-0.944-0.487-1.935-0.875-2.967-1.16
	c-1.031-0.288-2.337-0.432-3.912-0.432c-1.091,0-2.093,0.086-3.011,0.258c-0.917,0.174-1.712,0.438-2.387,0.797
	c-0.673,0.359-1.203,0.811-1.59,1.354c-0.39,0.546-0.58,1.175-0.58,1.892c0,0.688,0.206,1.297,0.624,1.827
	c0.415,0.531,0.938,0.982,1.568,1.356c0.631,0.371,1.332,0.65,2.106,0.837c0.772,0.187,1.519,0.279,2.236,0.279h0.387
	c1.29,0,2.624,0.173,3.997,0.515c1.377,0.345,2.632,0.877,3.765,1.593c1.132,0.718,2.056,1.62,2.772,2.708
	c0.717,1.089,1.074,2.365,1.074,3.828v0.171H176.555z"/>
<path fill="#E3CCAF" stroke="#E3CCAF" stroke-miterlimit="10" d="M186.693,210.037v-15.521c-0.058,0-0.245-0.017-0.559-0.046
	c-0.316-0.027-0.703-0.1-1.162-0.213c-0.458-0.115-0.932-0.279-1.419-0.496c-0.487-0.213-0.929-0.508-1.333-0.881l1.806-1.719
	c0.287,0.23,0.646,0.422,1.075,0.579c0.431,0.159,0.961,0.252,1.592,0.279v-10.318h20.037v2.493h-17.543v7.825h15.133v2.495h-15.133
	v13.027h17.887v2.494H186.693L186.693,210.037z"/>
<path fill="#E3CCAF" stroke="#E3CCAF" stroke-miterlimit="10" d="M235.12,181.702v2.493H225.06v25.842h-2.495v-25.842h-10.146
	v-2.493H235.12z"/>
<path fill="#E3CCAF" d="M105.59,244.025c-0.015,0.777-0.183,1.474-0.503,2.091c-0.319,0.619-0.762,1.144-1.326,1.579
	c-0.565,0.435-1.228,0.766-1.99,0.994c-0.764,0.23-1.594,0.342-2.492,0.342c-0.353,0-0.755-0.017-1.213-0.057
	c-0.458-0.037-0.926-0.095-1.406-0.171c-0.481-0.075-0.95-0.178-1.407-0.309c-0.458-0.129-0.861-0.277-1.213-0.443
	c0.076-0.169,0.161-0.38,0.252-0.631c0.091-0.251,0.183-0.453,0.274-0.605l0.138,0.047c0.777,0.242,1.546,0.448,2.309,0.616
	c0.762,0.168,1.562,0.252,2.401,0.252c0.518,0,1.067-0.073,1.647-0.219c0.579-0.145,1.112-0.368,1.601-0.674
	c0.487-0.305,0.892-0.693,1.212-1.166s0.48-1.045,0.48-1.715c0-0.184-0.061-0.461-0.183-0.836c-0.122-0.373-0.366-0.746-0.732-1.12
	c-0.366-0.374-0.892-0.704-1.578-0.995c-0.686-0.289-1.594-0.435-2.721-0.435c-0.458,0-0.964-0.06-1.521-0.182
	c-0.557-0.123-1.079-0.322-1.567-0.597c-0.488-0.273-0.896-0.631-1.223-1.073s-0.491-0.983-0.491-1.624v-0.093
	c0.03-1.05,0.525-1.875,1.486-2.471c0.961-0.594,2.272-0.905,3.934-0.936c0.381,0,0.735,0.009,1.063,0.021
	c0.328,0.016,0.652,0.054,0.972,0.115c0.32,0.06,0.644,0.141,0.973,0.24c0.328,0.099,0.674,0.233,1.04,0.399l-0.389,1.235
	c-0.502-0.261-1.029-0.465-1.578-0.618c-0.548-0.15-1.243-0.23-2.081-0.23c-0.579,0-1.113,0.048-1.601,0.14
	c-0.488,0.091-0.911,0.233-1.268,0.422c-0.359,0.192-0.641,0.432-0.847,0.721c-0.206,0.291-0.308,0.626-0.308,1.005
	c0,0.367,0.11,0.692,0.331,0.974c0.22,0.282,0.5,0.522,0.834,0.72c0.335,0.2,0.709,0.349,1.122,0.447
	c0.411,0.1,0.808,0.148,1.189,0.148h0.205c0.687,0,1.396,0.092,2.127,0.274c0.732,0.182,1.398,0.464,2.001,0.845
	c0.602,0.383,1.094,0.861,1.475,1.442c0.381,0.579,0.572,1.258,0.572,2.035V244.025L105.59,244.025z"/>
<path fill="#E3CCAF" d="M120.456,240.482v8.3h-1.327v-8.257c-0.031,0-0.129-0.007-0.297-0.021c-0.168-0.016-0.374-0.055-0.618-0.114
	c-0.244-0.061-0.496-0.148-0.755-0.264c-0.258-0.114-0.496-0.271-0.708-0.468l0.96-0.917c0.152,0.123,0.343,0.226,0.572,0.308
	c0.228,0.086,0.51,0.136,0.845,0.148v-5.486h6.609c0.549,0,1.09,0.056,1.624,0.172c0.534,0.114,1.011,0.301,1.43,0.56
	s0.758,0.607,1.017,1.04c0.259,0.436,0.389,0.98,0.389,1.637c0,0.457-0.073,0.892-0.217,1.303c-0.146,0.411-0.385,0.771-0.721,1.075
	c-0.336,0.306-0.781,0.547-1.339,0.722c-0.557,0.174-1.254,0.264-2.092,0.264H120.456L120.456,240.482z M120.456,235.037v4.162
	h5.351c0.489,0,0.923-0.025,1.305-0.08c0.38-0.053,0.701-0.151,0.96-0.297c0.259-0.145,0.457-0.354,0.594-0.629
	c0.137-0.275,0.206-0.634,0.206-1.074c0-0.795-0.248-1.339-0.743-1.639c-0.496-0.295-1.293-0.445-2.391-0.445h-5.281V235.037z"/>
<path fill="#E3CCAF" d="M148.99,240.504h-3.956l-4.025,8.278h-1.554l4.161-8.347c-0.258-0.046-0.548-0.127-0.868-0.24
	c-0.32-0.115-0.61-0.301-0.87-0.562l0.962-0.914c0.151,0.122,0.342,0.226,0.571,0.31c0.229,0.082,0.503,0.133,0.823,0.147
	l2.768-5.513l7.434,15.117h-1.486L148.99,240.504z M145.652,239.199h2.744l-1.373-2.812L145.652,239.199z"/>
<path fill="#E3CCAF" d="M177.647,246.976c-0.793,0.651-1.59,1.139-2.392,1.46c-0.798,0.322-1.688,0.484-2.662,0.484
	c-1.068,0-2.072-0.202-3.01-0.607c-0.938-0.402-1.752-0.956-2.446-1.657c-0.694-0.7-1.239-1.517-1.636-2.448
	c-0.396-0.93-0.595-1.913-0.595-2.95c0-1.066,0.198-2.069,0.595-3.007s0.941-1.758,1.636-2.459s1.509-1.255,2.446-1.659
	c0.938-0.403,1.941-0.604,3.01-0.604c0.807,0,1.578,0.125,2.309,0.376c0.732,0.253,1.512,0.668,2.333,1.247l-1.03,0.801
	c-0.595-0.426-1.172-0.716-1.735-0.869c-0.565-0.152-1.19-0.229-1.876-0.229c-0.886,0-1.713,0.169-2.481,0.504
	c-0.771,0.335-1.442,0.791-2.013,1.364c-0.574,0.572-1.027,1.254-1.363,2.039c-0.334,0.786-0.503,1.623-0.503,2.508
	c0,0.856,0.169,1.671,0.503,2.439c0.336,0.772,0.79,1.444,1.363,2.018c0.57,0.572,1.242,1.027,2.013,1.363
	c0.767,0.335,1.596,0.504,2.481,0.504c0.396,0,0.766-0.027,1.107-0.08c0.345-0.054,0.675-0.138,0.996-0.252
	c0.319-0.113,0.633-0.271,0.938-0.469c0.306-0.198,0.625-0.436,0.961-0.708L177.647,246.976z"/>
<path fill="#E3CCAF" d="M190.659,248.782v-8.257c-0.029,0-0.129-0.007-0.297-0.021c-0.167-0.016-0.373-0.055-0.616-0.114
	c-0.244-0.061-0.494-0.148-0.756-0.264c-0.259-0.114-0.494-0.271-0.707-0.468l0.96-0.917c0.151,0.123,0.343,0.226,0.572,0.308
	c0.229,0.086,0.511,0.136,0.845,0.148v-5.486h10.658v1.326h-9.33v4.162h8.051v1.327h-8.051v6.931h9.516v1.326L190.659,248.782
	L190.659,248.782z"/>
<rect x="60.704" y="224.27" fill="none" stroke="#E3CCAF" stroke-width="0.9962" stroke-miterlimit="10" width="174.646" height="34.863"/>
</svg>
