<?xml version="1.0" encoding="utf-8"?>
<!-- Generator: Adobe Illustrator 15.1.0, SVG Export Plug-In  -->
<!DOCTYPE svg PUBLIC "-//W3C//DTD SVG 1.1//EN" "http://www.w3.org/Graphics/SVG/1.1/DTD/svg11.dtd" [
	<!ENTITY ns_flows "http://ns.adobe.com/Flows/1.0/">
]>
<svg version="1.1"
	 xmlns="http://www.w3.org/2000/svg" xmlns:xlink="http://www.w3.org/1999/xlink" xmlns:a="http://ns.adobe.com/AdobeSVGViewerExtensions/3.0/"
	 x="0px" y="0px" width="300px" height="200px" viewBox="-77.729 -8.639 300 200"
	 overflow="visible" enable-background="new -77.729 -8.639 300 200" xml:space="preserve">
<defs>
</defs>
<path fill="#38454C" d="M104.613,15.165C95.565,6.116,83.532,1.132,70.734,1.132c-12.797,0-24.828,4.984-33.878,14.032
	c-9.048,9.05-14.032,21.081-14.032,33.879c0,3.556,0.387,7.053,1.136,10.445c1.249,5.641,3.51,10.986,6.688,15.817
	c1.786,2.714,3.859,5.266,6.208,7.615c9.049,9.048,21.081,14.032,33.877,14.032c12.797,0,24.831-4.984,33.878-14.032
	c3.687-3.684,6.54-7.557,8.815-12.08l0.155-0.309c0.404-0.807,0.656-1.335,1.016-2.164l0.128-0.29
	c2.568-5.93,3.921-12.38,3.921-19.036C118.648,36.245,113.662,24.215,104.613,15.165z M112.901,67.131
	c-3.675-1.631-7.812-2.553-11.796-2.553c-7.49,0-14.646,2.732-22.22,5.623c-6.332,2.417-12.876,4.917-19.824,5.807
	c-1.069,0.138-2.139,0.207-3.183,0.207c-8.422,0-15.674-4.638-18.047-11.541c-2.215-6.44,0.406-13.362,7.01-18.51l2.34-1.825
	l-2.909-0.58c-2.108-0.418-4.091-0.633-5.895-0.633c-3.877,0-7.058,0.972-9.454,2.89c-1.6,1.282-2.825,2.964-3.663,5.018
	c-0.029-0.66-0.046-1.324-0.046-1.991c0-25.099,20.419-45.52,45.519-45.52s45.521,20.421,45.521,45.52
	C116.256,55.42,115.276,61.616,112.901,67.131z"/>
<path fill="#E3CCAF" d="M44.463,43.797l-0.19-0.038c-2.108-0.418-4.091-0.632-5.895-0.632c-3.877,0-7.058,0.972-9.453,2.89
	c-1.6,1.282-2.825,2.963-3.663,5.017c-0.029-0.66-0.046-1.324-0.046-1.991c0-25.099,20.418-45.52,45.519-45.52
	s45.521,20.421,45.521,45.52c0,6.377-0.979,12.573-3.354,18.088c-3.675-1.63-7.812-2.553-11.796-2.553
	c-7.49,0-14.646,2.732-22.22,5.623c-6.332,2.418-12.876,4.917-19.824,5.808c-1.069,0.138-2.139,0.207-3.183,0.207
	c-8.422,0-15.674-4.638-18.047-11.541c-2.215-6.44,0.406-13.362,7.01-18.51l0.173-0.137C45.015,46.028,47.746,44.702,44.463,43.797z
	"/>
<path fill="#38454C" d="M54.631,59.657c-5.588-4.346-11.516-5.499-18.107,1.906l0,0c-2.135,9.163,4.665,18.521,14.574,16.677
	c-4.94,0.919-8.107-16.248,3.157-16.933C54.255,61.307,56.947,61.457,54.631,59.657z"/>
<path fill="none" stroke="#E3CCAF" stroke-width="1.7846" stroke-miterlimit="10" d="M38.022,57.866
	c-1.275,8.494,8.698,16.642,12.656,16.99"/>
<path fill="none" stroke="#E3CCAF" stroke-width="1.7934" stroke-miterlimit="10" d="M111.714,74.513
	c-14.141-3.423-19.585-0.166-30.38,3.828c-12.715,4.705-31.436,9.307-46.912,3.394"/>
<path fill="none" stroke="#E3CCAF" stroke-width="1.7934" stroke-miterlimit="10" d="M105.565,82.854
	c-9.862-1.217-15.155,1.621-24.231,4.978c-9.487,3.511-19.804,5.885-30,5.853"/>
<circle fill="#C9643A" cx="70.071" cy="33.112" r="14.791"/>
<line fill="none" stroke="#38454C" stroke-width="2.32" stroke-linecap="round" stroke-miterlimit="10" x1="107.55" y1="33.987" x2="107.55" y2="67.104"/>
<line fill="none" stroke="#38454C" stroke-width="2.32" stroke-linecap="round" stroke-miterlimit="10" x1="107.55" y1="33.987" x2="113.067" y2="42.53"/>
<line fill="none" stroke="#38454C" stroke-width="2.32" stroke-linecap="round" stroke-miterlimit="10" x1="107.55" y1="33.987" x2="101.896" y2="42.738"/>
<line fill="none" stroke="#38454C" stroke-width="2.32" stroke-linecap="round" stroke-miterlimit="10" x1="107.55" y1="44.382" x2="112.386" y2="51.869"/>
<line fill="none" stroke="#38454C" stroke-width="2.32" stroke-linecap="round" stroke-miterlimit="10" x1="107.55" y1="44.788" x2="102.792" y2="52.154"/>
<line fill="none" stroke="#38454C" stroke-width="2.32" stroke-linecap="round" stroke-miterlimit="10" x1="95.528" y1="44.335" x2="95.528" y2="69.95"/>
<line fill="none" stroke="#38454C" stroke-width="2.32" stroke-linecap="round" stroke-miterlimit="10" x1="95.528" y1="44.335" x2="99.796" y2="50.942"/>
<line fill="none" stroke="#38454C" stroke-width="2.32" stroke-linecap="round" stroke-miterlimit="10" x1="95.528" y1="44.335" x2="91.158" y2="51.104"/>
<line fill="none" stroke="#38454C" stroke-width="2.32" stroke-linecap="round" stroke-miterlimit="10" x1="95.528" y1="52.978" x2="99.268" y2="58.768"/>
<line fill="none" stroke="#38454C" stroke-width="2.32" stroke-linecap="round" stroke-miterlimit="10" x1="95.528" y1="53.293" x2="91.849" y2="58.989"/>
<circle fill="none" stroke="#38454C" stroke-width="3.2123" stroke-miterlimit="10" cx="70.021" cy="49.871" r="48.265"/>
<path fill="#E3CCAF" d="M17.445,128.356c-0.023,1.168-0.275,2.218-0.757,3.146c-0.482,0.928-1.147,1.72-1.995,2.373
	s-1.846,1.151-2.993,1.495c-1.147,0.347-2.396,0.518-3.749,0.518c-0.527,0-1.136-0.029-1.823-0.088
	c-0.688-0.057-1.393-0.141-2.116-0.256c-0.722-0.115-1.427-0.271-2.115-0.467c-0.688-0.192-1.296-0.418-1.823-0.669
	c0.114-0.253,0.241-0.567,0.377-0.946c0.138-0.377,0.276-0.683,0.413-0.911l0.207,0.068c1.169,0.367,2.327,0.677,3.474,0.928
	c1.146,0.254,2.351,0.379,3.612,0.379c0.779,0,1.605-0.107,2.476-0.326c0.872-0.218,1.675-0.556,2.408-1.015
	c0.734-0.458,1.342-1.044,1.824-1.754c0.482-0.711,0.723-1.57,0.723-2.58c0-0.275-0.092-0.694-0.275-1.256
	c-0.184-0.562-0.55-1.123-1.1-1.686s-1.341-1.061-2.374-1.495c-1.032-0.437-2.396-0.655-4.093-0.655
	c-0.688,0-1.451-0.09-2.288-0.274c-0.837-0.185-1.623-0.483-2.356-0.896s-1.347-0.95-1.84-1.615c-0.494-0.664-0.74-1.479-0.74-2.441
	v-0.139c0.046-1.582,0.791-2.82,2.236-3.715c1.445-0.893,3.417-1.363,5.916-1.41c0.573,0,1.106,0.013,1.6,0.034
	c0.493,0.024,0.98,0.082,1.462,0.173c0.481,0.092,0.968,0.213,1.462,0.361c0.493,0.15,1.015,0.35,1.564,0.603l-0.584,1.857
	c-0.756-0.39-1.548-0.7-2.374-0.929c-0.826-0.23-1.869-0.345-3.13-0.345c-0.872,0-1.674,0.068-2.408,0.206
	c-0.734,0.139-1.37,0.351-1.909,0.638s-0.962,0.648-1.273,1.083c-0.31,0.438-0.463,0.94-0.463,1.514c0,0.55,0.166,1.037,0.499,1.462
	c0.332,0.425,0.751,0.786,1.256,1.085c0.504,0.297,1.066,0.521,1.686,0.67c0.619,0.148,1.215,0.223,1.788,0.223h0.31
	c1.032,0,2.099,0.139,3.199,0.412c1.101,0.275,2.104,0.701,3.01,1.274c0.906,0.574,1.646,1.296,2.218,2.166
	c0.574,0.871,0.86,1.893,0.86,3.062v0.137H17.445z"/>
<path fill="#E3CCAF" d="M32.926,135.75c-1.262,0-2.437-0.235-3.525-0.705c-1.09-0.471-2.036-1.101-2.837-1.893
	c-0.803-0.79-1.434-1.72-1.892-2.785c-0.459-1.067-0.688-2.196-0.688-3.389v-14.137h1.995v14.137c0,0.941,0.172,1.822,0.516,2.647
	c0.344,0.826,0.825,1.544,1.444,2.15c0.62,0.607,1.353,1.09,2.202,1.445c0.848,0.356,1.777,0.534,2.787,0.534
	c0.986,0,1.92-0.178,2.803-0.534c0.882-0.355,1.651-0.838,2.305-1.445c0.654-0.606,1.17-1.324,1.548-2.15
	c0.378-0.825,0.568-1.706,0.568-2.647v-14.137h1.995v14.137c0,1.192-0.247,2.321-0.74,3.389c-0.493,1.065-1.158,1.994-1.995,2.785
	c-0.837,0.792-1.817,1.422-2.94,1.893C35.346,135.515,34.165,135.75,32.926,135.75z"/>
<path fill="#E3CCAF" d="M68.74,112.842v23.012l-16.166-18.471v18.128h-1.995V112.36l16.167,18.335v-17.852L68.74,112.842
	L68.74,112.842z"/>
<path fill="#E3CCAF" d="M93.079,128.356c-0.022,1.168-0.275,2.218-0.756,3.146c-0.48,0.928-1.147,1.72-1.996,2.373
	c-0.848,0.653-1.845,1.151-2.99,1.495c-1.147,0.347-2.396,0.518-3.75,0.518c-0.528,0-1.136-0.029-1.823-0.088
	c-0.688-0.057-1.394-0.141-2.116-0.256c-0.722-0.115-1.426-0.271-2.113-0.467c-0.688-0.192-1.297-0.418-1.824-0.669
	c0.114-0.253,0.241-0.567,0.378-0.946c0.138-0.377,0.276-0.683,0.413-0.911l0.206,0.068c1.17,0.367,2.328,0.677,3.474,0.928
	c1.146,0.254,2.35,0.379,3.612,0.379c0.78,0,1.605-0.107,2.477-0.326c0.871-0.218,1.674-0.556,2.409-1.015
	c0.733-0.458,1.34-1.044,1.822-1.754c0.482-0.711,0.724-1.57,0.724-2.58c0-0.275-0.093-0.694-0.276-1.256
	c-0.184-0.562-0.551-1.123-1.102-1.686c-0.549-0.562-1.341-1.061-2.372-1.495c-1.032-0.437-2.397-0.655-4.095-0.655
	c-0.688,0-1.449-0.09-2.287-0.274c-0.837-0.185-1.621-0.483-2.355-0.896c-0.735-0.412-1.348-0.95-1.84-1.615
	c-0.494-0.664-0.74-1.479-0.74-2.441v-0.139c0.045-1.582,0.791-2.82,2.236-3.715c1.445-0.893,3.417-1.363,5.917-1.41
	c0.571,0,1.105,0.013,1.599,0.034c0.492,0.024,0.979,0.082,1.462,0.173c0.481,0.092,0.97,0.213,1.463,0.361
	c0.492,0.15,1.013,0.35,1.564,0.603l-0.585,1.857c-0.756-0.39-1.548-0.7-2.373-0.929c-0.825-0.23-1.87-0.345-3.13-0.345
	c-0.873,0-1.675,0.068-2.409,0.206c-0.733,0.139-1.369,0.351-1.909,0.638c-0.538,0.287-0.962,0.648-1.271,1.083
	c-0.312,0.438-0.464,0.94-0.464,1.514c0,0.55,0.164,1.037,0.499,1.462c0.332,0.425,0.75,0.786,1.255,1.085
	c0.504,0.297,1.065,0.521,1.685,0.67c0.618,0.148,1.215,0.223,1.789,0.223h0.31c1.032,0,2.1,0.139,3.197,0.412
	c1.102,0.275,2.105,0.701,3.012,1.274c0.906,0.574,1.645,1.296,2.219,2.166c0.573,0.871,0.859,1.893,0.859,3.062v0.137H93.079z"/>
<path fill="#E3CCAF" d="M101.19,135.51v-12.417c-0.047,0-0.196-0.013-0.447-0.036c-0.253-0.022-0.562-0.08-0.93-0.171
	c-0.366-0.092-0.745-0.223-1.135-0.396c-0.391-0.17-0.743-0.406-1.066-0.705l1.444-1.375c0.229,0.185,0.517,0.338,0.86,0.464
	c0.344,0.127,0.769,0.201,1.273,0.224v-8.255h16.029v1.994h-14.034v6.261h12.106v1.996h-12.106v10.422h14.31v1.995H101.19
	L101.19,135.51z"/>
<path fill="#E3CCAF" d="M139.932,112.842v1.994h-8.049v20.674h-1.996v-20.674h-8.116v-1.994H139.932z"/>
<path fill="#E3CCAF" d="M36.308,162.701c-0.012,0.622-0.146,1.179-0.403,1.673c-0.255,0.495-0.609,0.915-1.061,1.263
	s-0.982,0.613-1.592,0.796c-0.611,0.185-1.275,0.273-1.994,0.273c-0.282,0-0.604-0.014-0.97-0.046
	c-0.366-0.029-0.741-0.075-1.125-0.137c-0.385-0.06-0.76-0.142-1.125-0.246c-0.366-0.104-0.689-0.223-0.97-0.355
	c0.061-0.135,0.128-0.304,0.202-0.504c0.073-0.201,0.146-0.363,0.219-0.484l0.11,0.037c0.622,0.193,1.237,0.358,1.847,0.493
	c0.61,0.134,1.25,0.201,1.921,0.201c0.414,0,0.854-0.059,1.317-0.175c0.463-0.115,0.89-0.295,1.28-0.539
	c0.39-0.244,0.713-0.555,0.97-0.933s0.384-0.836,0.384-1.372c0-0.146-0.049-0.369-0.146-0.669c-0.098-0.298-0.293-0.597-0.585-0.896
	c-0.293-0.3-0.713-0.563-1.262-0.797c-0.548-0.23-1.275-0.348-2.177-0.348c-0.366,0-0.771-0.047-1.217-0.145
	c-0.445-0.099-0.863-0.258-1.253-0.478c-0.391-0.219-0.716-0.505-0.979-0.858c-0.262-0.354-0.393-0.787-0.393-1.3v-0.074
	c0.024-0.84,0.42-1.5,1.189-1.977c0.769-0.475,1.818-0.724,3.147-0.748c0.305,0,0.588,0.007,0.851,0.017
	c0.262,0.013,0.521,0.043,0.777,0.093c0.256,0.048,0.516,0.112,0.778,0.192c0.262,0.078,0.54,0.187,0.832,0.319l-0.312,0.988
	c-0.402-0.209-0.823-0.372-1.262-0.495c-0.439-0.12-0.994-0.184-1.665-0.184c-0.463,0-0.89,0.038-1.281,0.111
	c-0.39,0.072-0.729,0.187-1.015,0.338c-0.288,0.153-0.513,0.345-0.678,0.576c-0.165,0.232-0.247,0.501-0.247,0.804
	c0,0.294,0.088,0.554,0.265,0.779c0.176,0.226,0.399,0.418,0.667,0.575c0.269,0.16,0.567,0.279,0.897,0.358
	c0.328,0.079,0.646,0.118,0.951,0.118h0.164c0.549,0,1.117,0.074,1.702,0.22s1.119,0.371,1.601,0.676
	c0.482,0.307,0.875,0.689,1.18,1.154c0.305,0.463,0.458,1.006,0.458,1.628V162.701L36.308,162.701z"/>
<path fill="#E3CCAF" d="M48.2,159.867v6.64h-1.062v-6.605c-0.025,0-0.104-0.006-0.238-0.018c-0.134-0.013-0.299-0.044-0.494-0.091
	c-0.195-0.049-0.397-0.119-0.604-0.211c-0.207-0.092-0.396-0.217-0.566-0.375l0.768-0.733c0.122,0.099,0.274,0.181,0.458,0.246
	c0.182,0.069,0.408,0.108,0.676,0.119v-4.39h5.287c0.439,0,0.873,0.045,1.299,0.138c0.427,0.092,0.809,0.241,1.144,0.448
	c0.335,0.207,0.606,0.485,0.813,0.832c0.207,0.348,0.312,0.784,0.312,1.309c0,0.366-0.059,0.714-0.174,1.043
	c-0.116,0.328-0.308,0.617-0.576,0.859c-0.269,0.245-0.625,0.438-1.071,0.578c-0.445,0.139-1.003,0.211-1.674,0.211H48.2
	L48.2,159.867z M48.2,155.51v3.329h4.28c0.391,0,0.738-0.02,1.044-0.063c0.304-0.042,0.561-0.121,0.769-0.237
	c0.207-0.116,0.365-0.284,0.475-0.504s0.165-0.507,0.165-0.859c0-0.636-0.198-1.07-0.595-1.311
	c-0.396-0.236-1.035-0.356-1.913-0.356H48.2V155.51z"/>
<path fill="#E3CCAF" d="M71.027,159.883h-3.164l-3.221,6.623h-1.243l3.329-6.678c-0.207-0.036-0.438-0.102-0.695-0.192
	c-0.256-0.092-0.488-0.24-0.696-0.449l0.77-0.73c0.121,0.098,0.273,0.18,0.457,0.247c0.183,0.065,0.402,0.106,0.658,0.118
	l2.214-4.41l5.947,12.094h-1.189L71.027,159.883z M68.357,158.839h2.195l-1.099-2.25L68.357,158.839z"/>
<path fill="#E3CCAF" d="M93.953,165.061c-0.634,0.521-1.271,0.911-1.913,1.168c-0.639,0.258-1.351,0.388-2.13,0.388
	c-0.854,0-1.657-0.162-2.407-0.486c-0.75-0.322-1.402-0.765-1.957-1.326c-0.556-0.56-0.992-1.213-1.309-1.958
	c-0.317-0.744-0.477-1.53-0.477-2.36c0-0.854,0.159-1.655,0.477-2.405c0.316-0.75,0.753-1.406,1.309-1.968
	c0.555-0.561,1.207-1.004,1.957-1.327c0.75-0.322,1.553-0.483,2.407-0.483c0.646,0,1.263,0.1,1.847,0.301
	c0.586,0.202,1.21,0.534,1.867,0.998l-0.824,0.641c-0.477-0.341-0.938-0.573-1.389-0.695c-0.452-0.122-0.952-0.184-1.501-0.184
	c-0.708,0-1.37,0.135-1.985,0.402c-0.616,0.269-1.153,0.633-1.609,1.092c-0.46,0.458-0.822,1.003-1.091,1.631
	c-0.268,0.629-0.402,1.299-0.402,2.007c0,0.685,0.135,1.337,0.402,1.951c0.269,0.618,0.632,1.155,1.091,1.614
	c0.456,0.458,0.993,0.822,1.609,1.091c0.613,0.268,1.277,0.403,1.985,0.403c0.316,0,0.612-0.022,0.886-0.064
	c0.276-0.043,0.54-0.11,0.797-0.201c0.256-0.091,0.507-0.217,0.75-0.375c0.245-0.159,0.5-0.349,0.77-0.566L93.953,165.061z"/>
<path fill="#E3CCAF" d="M104.362,166.506v-6.605c-0.023,0-0.103-0.006-0.237-0.018c-0.134-0.013-0.298-0.044-0.493-0.091
	c-0.195-0.049-0.395-0.119-0.604-0.211c-0.207-0.092-0.396-0.217-0.565-0.375l0.768-0.733c0.121,0.099,0.274,0.181,0.458,0.246
	c0.183,0.069,0.409,0.108,0.676,0.119v-4.39h8.526v1.062h-7.464v3.329h6.44v1.062h-6.44v5.544h7.612v1.062L104.362,166.506
	L104.362,166.506z"/>
<rect x="0.398" y="146.896" fill="none" stroke="#E3CCAF" stroke-width="0.7969" stroke-miterlimit="10" width="139.717" height="27.891"/>
</svg>
