<?xml version="1.0" encoding="utf-8"?>
<!-- Generator: Adobe Illustrator 15.0.0, SVG Export Plug-In  -->
<!DOCTYPE svg PUBLIC "-//W3C//DTD SVG 1.1//EN" "http://www.w3.org/Graphics/SVG/1.1/DTD/svg11.dtd" [
	<!ENTITY ns_flows "http://ns.adobe.com/Flows/1.0/">
]>
<svg version="1.1"
	 xmlns="http://www.w3.org/2000/svg" xmlns:xlink="http://www.w3.org/1999/xlink" xmlns:a="http://ns.adobe.com/AdobeSVGViewerExtensions/3.0/"
	 x="0px" y="0px" width="300px" height="300px" viewBox="-33.021 -3.689 300 300"
	 overflow="visible" enable-background="new -33.021 -3.689 300 300" xml:space="preserve">
<defs>
</defs>
<path fill="#38454C" d="M174.355,25.275c-15.08-15.081-35.135-23.388-56.465-23.388c-21.328,0-41.379,8.307-56.463,23.388
	C46.346,40.358,38.041,60.409,38.041,81.739c0,5.927,0.645,11.756,1.893,17.408c2.082,9.402,5.85,18.31,11.148,26.362
	c2.976,4.523,6.432,8.776,10.346,12.691c15.083,15.081,35.135,23.387,56.463,23.387c21.33,0,41.385-8.307,56.465-23.387
	c6.143-6.139,10.899-12.594,14.691-20.133l0.26-0.514c0.674-1.345,1.094-2.225,1.691-3.606l0.214-0.483
	c4.281-9.884,6.535-20.633,6.535-31.726C197.747,60.409,189.436,40.358,174.355,25.275z M188.168,111.886
	c-6.124-2.718-13.021-4.255-19.659-4.255c-12.483,0-24.409,4.553-37.032,9.371c-10.554,4.029-21.462,8.194-33.041,9.679
	c-1.781,0.229-3.565,0.345-5.305,0.345c-14.037,0-26.123-7.73-30.078-19.235c-3.691-10.734,0.676-22.271,11.683-30.851l3.9-3.041
	l-4.849-0.967c-3.513-0.697-6.818-1.054-9.824-1.054c-6.462,0-11.763,1.62-15.756,4.817c-2.666,2.136-4.708,4.94-6.104,8.362
	c-0.049-1.1-0.077-2.207-0.077-3.318c0-41.831,34.031-75.867,75.864-75.867s75.869,34.036,75.869,75.867
	C193.76,92.367,192.127,102.694,188.168,111.886z"/>
<path fill="#E3CCAF" d="M74.105,72.996l-0.317-0.063c-3.513-0.697-6.818-1.054-9.824-1.054c-6.462,0-11.763,1.62-15.756,4.817
	c-2.666,2.136-4.708,4.94-6.104,8.362c-0.049-1.1-0.077-2.207-0.077-3.318c0-41.831,34.031-75.867,75.864-75.867
	s75.869,34.036,75.869,75.867c0,10.628-1.633,20.955-5.592,30.147c-6.124-2.718-13.021-4.255-19.659-4.255
	c-12.483,0-24.409,4.553-37.032,9.371c-10.554,4.029-21.462,8.194-33.041,9.679c-1.781,0.229-3.565,0.345-5.305,0.345
	c-14.037,0-26.123-7.73-30.078-19.235c-3.691-10.734,0.676-22.271,11.683-30.851l0.289-0.227
	C75.025,76.713,79.576,74.504,74.105,72.996z"/>
<path fill="#38454C" d="M91.051,99.429c-9.314-7.244-19.193-9.164-30.178,3.176l0,0c-3.559,15.271,7.775,30.869,24.29,27.795
	c-8.234,1.532-13.513-27.08,5.262-28.222C90.425,102.179,94.911,102.428,91.051,99.429z"/>
<path fill="none" stroke="#E3CCAF" stroke-width="2.9744" stroke-miterlimit="10" d="M63.37,96.444
	c-2.125,14.157,14.496,27.736,21.093,28.317"/>
<path fill="none" stroke="#E3CCAF" stroke-width="2.989" stroke-miterlimit="10" d="M186.189,124.189
	c-23.567-5.705-32.641-0.277-50.633,6.38c-21.192,7.841-52.392,15.511-78.187,5.656"/>
<path fill="none" stroke="#E3CCAF" stroke-width="2.989" stroke-miterlimit="10" d="M175.941,138.091
	c-16.436-2.028-25.257,2.701-40.385,8.297c-15.812,5.851-33.006,9.808-50,9.754"/>
<circle fill="#C9643A" cx="116.785" cy="55.186" r="24.652"/>
<line fill="none" stroke="#38454C" stroke-width="3.8667" stroke-linecap="round" stroke-miterlimit="10" x1="179.249" y1="56.646" x2="179.249" y2="111.841"/>
<line fill="none" stroke="#38454C" stroke-width="3.8667" stroke-linecap="round" stroke-miterlimit="10" x1="179.249" y1="56.646" x2="188.445" y2="70.883"/>
<line fill="none" stroke="#38454C" stroke-width="3.8667" stroke-linecap="round" stroke-miterlimit="10" x1="179.249" y1="56.646" x2="169.827" y2="71.23"/>
<line fill="none" stroke="#38454C" stroke-width="3.8667" stroke-linecap="round" stroke-miterlimit="10" x1="179.249" y1="73.97" x2="187.309" y2="86.448"/>
<line fill="none" stroke="#38454C" stroke-width="3.8667" stroke-linecap="round" stroke-miterlimit="10" x1="179.249" y1="74.647" x2="171.32" y2="86.923"/>
<line fill="none" stroke="#38454C" stroke-width="3.8667" stroke-linecap="round" stroke-miterlimit="10" x1="159.214" y1="73.892" x2="159.214" y2="116.583"/>
<line fill="none" stroke="#38454C" stroke-width="3.8667" stroke-linecap="round" stroke-miterlimit="10" x1="159.214" y1="73.892" x2="166.326" y2="84.903"/>
<line fill="none" stroke="#38454C" stroke-width="3.8667" stroke-linecap="round" stroke-miterlimit="10" x1="159.214" y1="73.892" x2="151.929" y2="85.173"/>
<line fill="none" stroke="#38454C" stroke-width="3.8667" stroke-linecap="round" stroke-miterlimit="10" x1="159.214" y1="88.297" x2="165.445" y2="97.947"/>
<line fill="none" stroke="#38454C" stroke-width="3.8667" stroke-linecap="round" stroke-miterlimit="10" x1="159.214" y1="88.822" x2="153.081" y2="98.316"/>
<circle fill="none" stroke="#38454C" stroke-width="5.3539" stroke-miterlimit="10" cx="116.702" cy="83.118" r="80.441"/>
<path fill="#E3CCAF" d="M29.074,213.927c-0.039,1.946-0.458,3.696-1.261,5.243c-0.803,1.548-1.911,2.867-3.325,3.957
	c-1.414,1.088-3.077,1.919-4.988,2.492c-1.912,0.576-3.994,0.861-6.249,0.861c-0.879,0-1.892-0.048-3.038-0.145
	c-1.147-0.096-2.322-0.236-3.526-0.427c-1.204-0.192-2.379-0.452-3.525-0.778c-1.146-0.321-2.16-0.696-3.039-1.116
	c0.191-0.42,0.402-0.945,0.63-1.576c0.23-0.63,0.459-1.138,0.688-1.519l0.344,0.113c1.949,0.613,3.879,1.129,5.79,1.548
	c1.911,0.423,3.918,0.631,6.02,0.631c1.299,0,2.675-0.18,4.127-0.544c1.453-0.362,2.791-0.926,4.014-1.691
	c1.223-0.764,2.236-1.739,3.039-2.924c0.803-1.184,1.205-2.617,1.205-4.299c0-0.459-0.153-1.157-0.459-2.094
	s-0.917-1.871-1.834-2.809c-0.917-0.938-2.236-1.768-3.956-2.493c-1.72-0.727-3.994-1.09-6.822-1.09
	c-1.147,0-2.418-0.151-3.813-0.459c-1.396-0.306-2.704-0.804-3.927-1.492c-1.223-0.687-2.245-1.584-3.067-2.692
	c-0.822-1.107-1.232-2.465-1.232-4.07v-0.23c0.076-2.636,1.318-4.701,3.726-6.191c2.408-1.489,5.695-2.272,9.86-2.35
	c0.955,0,1.844,0.02,2.667,0.057c0.821,0.04,1.633,0.136,2.436,0.288c0.803,0.153,1.614,0.354,2.437,0.602
	c0.821,0.25,1.691,0.583,2.607,1.004l-0.974,3.095c-1.261-0.649-2.58-1.166-3.956-1.547c-1.376-0.383-3.115-0.575-5.217-0.575
	c-1.453,0-2.791,0.115-4.013,0.344c-1.224,0.231-2.284,0.585-3.182,1.062c-0.897,0.479-1.604,1.081-2.121,1.806
	c-0.516,0.728-0.773,1.568-0.773,2.522c0,0.917,0.276,1.73,0.831,2.437c0.554,0.708,1.252,1.31,2.093,1.808
	c0.84,0.496,1.777,0.867,2.809,1.116c1.032,0.249,2.025,0.373,2.981,0.373h0.516c1.72,0,3.498,0.229,5.332,0.687
	s3.506,1.168,5.017,2.122c1.509,0.958,2.742,2.16,3.697,3.611c0.956,1.452,1.434,3.153,1.434,5.104V213.927z"/>
<path fill="#E3CCAF" d="M54.877,226.252c-2.103,0-4.062-0.393-5.876-1.177c-1.816-0.783-3.393-1.833-4.729-3.153
	c-1.338-1.317-2.389-2.865-3.153-4.642c-0.765-1.778-1.146-3.661-1.146-5.649v-23.561h3.325v23.561c0,1.569,0.287,3.038,0.86,4.413
	c0.573,1.378,1.376,2.573,2.408,3.584c1.032,1.013,2.254,1.818,3.669,2.409c1.413,0.594,2.961,0.89,4.644,0.89
	c1.643,0,3.201-0.296,4.672-0.89c1.47-0.591,2.751-1.396,3.841-2.409c1.089-1.011,1.949-2.206,2.579-3.584
	c0.631-1.375,0.947-2.844,0.947-4.413v-23.561h3.324v23.561c0,1.988-0.411,3.871-1.233,5.649c-0.821,1.776-1.93,3.324-3.325,4.642
	c-1.395,1.32-3.029,2.37-4.901,3.153C58.909,225.86,56.941,226.252,54.877,226.252z"/>
<path fill="#E3CCAF" d="M114.567,188.071v38.353l-26.944-30.785v30.212h-3.325v-38.583l26.945,30.556v-29.752H114.567z"/>
<path fill="#E3CCAF" d="M155.132,213.927c-0.038,1.946-0.459,3.696-1.261,5.243c-0.801,1.548-1.912,2.867-3.325,3.957
	c-1.414,1.088-3.076,1.919-4.985,2.492c-1.913,0.576-3.995,0.861-6.251,0.861c-0.879,0-1.892-0.048-3.038-0.145
	c-1.147-0.096-2.322-0.236-3.527-0.427c-1.202-0.192-2.377-0.452-3.522-0.778c-1.146-0.321-2.161-0.696-3.04-1.116
	c0.19-0.42,0.401-0.945,0.63-1.576c0.229-0.63,0.46-1.138,0.688-1.519l0.345,0.113c1.948,0.613,3.878,1.129,5.788,1.548
	c1.912,0.423,3.917,0.631,6.021,0.631c1.299,0,2.676-0.18,4.128-0.544c1.452-0.362,2.789-0.926,4.014-1.691
	c1.223-0.764,2.234-1.739,3.038-2.924c0.804-1.184,1.205-2.617,1.205-4.299c0-0.459-0.154-1.157-0.46-2.094
	s-0.917-1.871-1.836-2.809c-0.915-0.938-2.234-1.768-3.954-2.493c-1.72-0.727-3.994-1.09-6.824-1.09
	c-1.145,0-2.415-0.151-3.811-0.459c-1.396-0.306-2.703-0.804-3.927-1.492c-1.225-0.687-2.246-1.584-3.066-2.692
	c-0.823-1.107-1.234-2.465-1.234-4.07v-0.23c0.076-2.636,1.318-4.701,3.728-6.191c2.408-1.489,5.693-2.272,9.861-2.35
	c0.952,0,1.843,0.02,2.665,0.057c0.82,0.04,1.633,0.136,2.437,0.288c0.802,0.153,1.615,0.354,2.437,0.602
	c0.82,0.25,1.689,0.583,2.608,1.004l-0.975,3.095c-1.26-0.649-2.58-1.166-3.957-1.547c-1.375-0.383-3.115-0.575-5.215-0.575
	c-1.454,0-2.791,0.115-4.014,0.344c-1.224,0.231-2.283,0.585-3.183,1.062c-0.896,0.479-1.604,1.081-2.12,1.806
	c-0.518,0.728-0.773,1.568-0.773,2.522c0,0.917,0.275,1.73,0.832,2.437c0.553,0.708,1.25,1.31,2.091,1.808
	c0.842,0.496,1.776,0.867,2.809,1.116c1.031,0.249,2.025,0.373,2.982,0.373h0.515c1.72,0,3.498,0.229,5.331,0.687
	c1.835,0.458,3.508,1.168,5.018,2.122c1.508,0.958,2.741,2.16,3.697,3.611c0.955,1.452,1.433,3.153,1.433,5.104V213.927z"/>
<path fill="#E3CCAF" d="M168.65,225.85v-20.694c-0.077,0-0.327-0.021-0.746-0.06c-0.422-0.037-0.937-0.133-1.548-0.286
	c-0.611-0.152-1.242-0.371-1.892-0.66c-0.65-0.284-1.24-0.677-1.778-1.175l2.408-2.291c0.383,0.306,0.86,0.562,1.434,0.772
	c0.574,0.212,1.28,0.336,2.122,0.372v-13.758h26.715v3.324h-23.391v10.434h20.179v3.327h-20.179v17.37h23.85v3.324H168.65z"/>
<path fill="#E3CCAF" d="M233.219,188.071v3.324h-13.415v34.455h-3.325v-34.455H202.95v-3.324H233.219z"/>
<path fill="#E3CCAF" d="M60.512,271.168c-0.02,1.036-0.244,1.965-0.671,2.788c-0.426,0.825-1.016,1.525-1.768,2.104
	c-0.753,0.581-1.637,1.022-2.653,1.327c-1.018,0.306-2.125,0.456-3.323,0.456c-0.47,0-1.007-0.023-1.617-0.075
	c-0.61-0.05-1.235-0.128-1.875-0.229c-0.641-0.1-1.267-0.237-1.876-0.411c-0.61-0.172-1.148-0.37-1.617-0.592
	c0.102-0.225,0.214-0.506,0.336-0.84c0.121-0.335,0.244-0.605,0.365-0.808l0.184,0.062c1.036,0.323,2.062,0.598,3.079,0.821
	c1.017,0.225,2.083,0.336,3.202,0.336c0.691,0,1.422-0.096,2.196-0.29c0.772-0.194,1.483-0.492,2.134-0.899
	c0.65-0.406,1.189-0.925,1.616-1.555c0.427-0.63,0.64-1.392,0.64-2.287c0-0.244-0.082-0.613-0.244-1.113
	c-0.163-0.498-0.488-0.996-0.976-1.494c-0.488-0.498-1.189-0.94-2.104-1.327c-0.914-0.385-2.125-0.579-3.628-0.579
	c-0.61,0-1.286-0.08-2.028-0.243c-0.742-0.164-1.438-0.429-2.089-0.794c-0.651-0.366-1.194-0.843-1.631-1.432
	c-0.437-0.59-0.655-1.312-0.655-2.165v-0.124c0.041-1.401,0.701-2.5,1.982-3.294c1.281-0.792,3.029-1.208,5.245-1.248
	c0.508,0,0.98,0.012,1.417,0.029c0.437,0.021,0.87,0.071,1.296,0.153c0.427,0.081,0.859,0.188,1.297,0.321
	c0.437,0.13,0.899,0.31,1.387,0.533l-0.519,1.647c-0.67-0.348-1.372-0.621-2.104-0.825c-0.731-0.201-1.657-0.306-2.774-0.306
	c-0.772,0-1.484,0.063-2.135,0.185c-0.651,0.121-1.215,0.31-1.691,0.563c-0.479,0.256-0.855,0.575-1.129,0.961
	c-0.275,0.387-0.411,0.833-0.411,1.339c0,0.49,0.147,0.923,0.441,1.298c0.294,0.377,0.666,0.696,1.113,0.96
	c0.447,0.267,0.946,0.465,1.495,0.596c0.548,0.133,1.077,0.198,1.586,0.198h0.274c0.915,0,1.86,0.123,2.836,0.366
	c0.976,0.243,1.865,0.62,2.668,1.127c0.803,0.51,1.459,1.149,1.967,1.923c0.508,0.773,0.762,1.677,0.762,2.713V271.168z"/>
<path fill="#E3CCAF" d="M80.333,266.443v11.068h-1.769v-11.009c-0.041,0-0.173-0.01-0.396-0.029
	c-0.224-0.021-0.499-0.072-0.824-0.153c-0.325-0.081-0.661-0.198-1.006-0.351c-0.345-0.153-0.661-0.362-0.945-0.624l1.281-1.223
	c0.202,0.164,0.457,0.302,0.763,0.411c0.304,0.113,0.68,0.181,1.127,0.198v-7.316h8.812c0.732,0,1.454,0.074,2.166,0.229
	c0.712,0.153,1.347,0.402,1.906,0.747c0.559,0.346,1.011,0.809,1.356,1.386c0.345,0.58,0.519,1.308,0.519,2.183
	c0,0.609-0.097,1.188-0.289,1.737c-0.194,0.548-0.514,1.027-0.961,1.433c-0.448,0.407-1.042,0.729-1.785,0.962
	c-0.742,0.232-1.672,0.352-2.79,0.352H80.333z M80.333,259.183v5.549h7.135c0.651,0,1.23-0.033,1.739-0.106
	c0.507-0.069,0.935-0.201,1.281-0.396c0.345-0.192,0.609-0.472,0.792-0.837c0.183-0.367,0.274-0.846,0.274-1.434
	c0-1.059-0.331-1.784-0.991-2.183c-0.661-0.395-1.724-0.594-3.188-0.594H80.333z"/>
<path fill="#E3CCAF" d="M118.379,266.473h-5.274l-5.367,11.038h-2.073l5.549-11.129c-0.345-0.062-0.731-0.17-1.158-0.322
	c-0.427-0.153-0.814-0.4-1.16-0.748l1.282-1.218c0.202,0.162,0.457,0.301,0.762,0.412c0.305,0.11,0.671,0.177,1.098,0.197l3.69-7.35
	l9.911,20.157h-1.981L118.379,266.473z M113.928,264.732h3.659l-1.83-3.75L113.928,264.732z"/>
<path fill="#E3CCAF" d="M156.589,275.101c-1.058,0.869-2.12,1.519-3.188,1.947c-1.065,0.431-2.252,0.646-3.551,0.646
	c-1.424,0-2.762-0.269-4.012-0.809c-1.25-0.537-2.336-1.275-3.263-2.21c-0.925-0.935-1.651-2.022-2.18-3.265
	c-0.529-1.24-0.793-2.551-0.793-3.934c0-1.421,0.264-2.759,0.793-4.009c0.528-1.25,1.255-2.344,2.18-3.278
	c0.927-0.935,2.013-1.673,3.263-2.212c1.25-0.537,2.588-0.807,4.012-0.807c1.076,0,2.104,0.167,3.078,0.502
	c0.977,0.337,2.015,0.89,3.111,1.663l-1.373,1.067c-0.794-0.567-1.563-0.954-2.315-1.158c-0.753-0.204-1.588-0.306-2.501-0.306
	c-1.181,0-2.284,0.225-3.308,0.671c-1.028,0.448-1.923,1.055-2.685,1.819c-0.764,0.763-1.369,1.671-1.816,2.719
	c-0.446,1.049-0.671,2.163-0.671,3.344c0,1.142,0.225,2.228,0.671,3.253c0.447,1.03,1.053,1.925,1.816,2.69
	c0.762,0.763,1.656,1.37,2.685,1.818c1.023,0.446,2.127,0.671,3.308,0.671c0.528,0,1.021-0.036,1.477-0.107
	c0.459-0.071,0.899-0.183,1.328-0.336c0.426-0.15,0.843-0.36,1.25-0.624c0.407-0.265,0.834-0.581,1.28-0.945L156.589,275.101z"/>
<path fill="#E3CCAF" d="M173.938,277.511v-11.009c-0.039,0-0.172-0.01-0.396-0.029c-0.223-0.021-0.498-0.072-0.822-0.153
	c-0.326-0.081-0.66-0.198-1.007-0.351c-0.346-0.153-0.66-0.362-0.943-0.624l1.28-1.223c0.202,0.164,0.457,0.302,0.763,0.411
	c0.304,0.113,0.681,0.181,1.126,0.198v-7.316h14.212v1.768h-12.441v5.549h10.733v1.771h-10.733v9.24h12.686v1.769H173.938z"/>
<rect x="0.664" y="244.826" fill="none" stroke="#E3CCAF" stroke-width="1.3282" stroke-miterlimit="10" width="232.862" height="46.485"/>
</svg>
