<?xml version="1.0" encoding="utf-8"?>
<!-- Generator: Adobe Illustrator 15.1.0, SVG Export Plug-In  -->
<!DOCTYPE svg PUBLIC "-//W3C//DTD SVG 1.1//EN" "http://www.w3.org/Graphics/SVG/1.1/DTD/svg11.dtd" [
	<!ENTITY ns_flows "http://ns.adobe.com/Flows/1.0/">
]>
<svg version="1.1"
	 xmlns="http://www.w3.org/2000/svg" xmlns:xlink="http://www.w3.org/1999/xlink" xmlns:a="http://ns.adobe.com/AdobeSVGViewerExtensions/3.0/"
	 x="0px" y="0px" width="200px" height="200px" viewBox="-21.156 -0.57 200 200"
	 overflow="visible" enable-background="new -21.156 -0.57 200 200" xml:space="preserve">
<defs>
</defs>
<path fill="#39464D" d="M118.607,17.194c-10.259-10.259-23.9-15.91-38.411-15.91c-14.509,0-28.148,5.651-38.41,15.91
	c-10.259,10.26-15.909,23.901-15.909,38.411c0,4.032,0.439,7.997,1.288,11.842c1.417,6.396,3.98,12.456,7.583,17.933
	c2.024,3.078,4.375,5.971,7.038,8.634c10.26,10.258,23.9,15.909,38.409,15.909c14.511,0,28.152-5.651,38.411-15.909
	c4.18-4.176,7.415-8.567,9.993-13.696l0.177-0.35c0.459-0.915,0.744-1.514,1.151-2.453l0.146-0.33
	c2.913-6.724,4.447-14.035,4.447-21.582C134.521,41.095,128.867,27.454,118.607,17.194z M128.003,76.112
	c-4.164-1.849-8.857-2.895-13.372-2.895c-8.493,0-16.605,3.098-25.192,6.375c-7.179,2.741-14.6,5.574-22.476,6.583
	c-1.212,0.156-2.425,0.234-3.608,0.234c-9.549,0-17.771-5.257-20.461-13.084c-2.511-7.302,0.459-15.149,7.947-20.987l2.653-2.068
	l-3.298-0.657c-2.39-0.475-4.638-0.718-6.683-0.718c-4.396,0-8.001,1.102-10.718,3.277c-1.813,1.453-3.203,3.361-4.152,5.688
	c-0.033-0.748-0.052-1.501-0.052-2.257c0-28.456,23.15-51.61,51.607-51.61s51.61,23.154,51.61,51.61
	C131.808,62.834,130.697,69.859,128.003,76.112z"/>
<path fill="#E4CCB0" d="M50.411,49.657l-0.216-0.042c-2.389-0.475-4.637-0.718-6.683-0.718c-4.396,0-8.001,1.102-10.718,3.277
	c-1.813,1.454-3.203,3.361-4.152,5.688c-0.033-0.748-0.052-1.501-0.052-2.257c0-28.456,23.15-51.609,51.607-51.609
	c28.458,0,51.611,23.154,51.611,51.609c0,7.23-1.11,14.255-3.805,20.508c-4.164-1.849-8.857-2.895-13.372-2.895
	c-8.493,0-16.605,3.098-25.192,6.375c-7.179,2.741-14.6,5.574-22.476,6.584c-1.212,0.156-2.425,0.234-3.608,0.234
	c-9.549,0-17.771-5.258-20.461-13.084c-2.511-7.302,0.459-15.15,7.947-20.987l0.196-0.155
	C51.037,52.185,54.133,50.682,50.411,49.657z"/>
<path fill="#39464D" d="M61.939,67.638c-6.336-4.927-13.057-6.234-20.529,2.161l0,0c-2.421,10.388,5.289,20.999,16.524,18.907
	c-5.602,1.042-9.193-18.421,3.579-19.198C61.512,69.509,64.564,69.678,61.939,67.638z"/>
<path fill="none" stroke="#E4CCB0" stroke-width="2.0234" stroke-miterlimit="10" d="M43.108,65.608
	c-1.446,9.63,9.861,18.868,14.349,19.262"/>
<path fill="none" stroke="#E4CCB0" stroke-width="2.0333" stroke-miterlimit="10" d="M126.657,84.481
	c-16.031-3.88-22.203-0.188-34.443,4.341c-14.417,5.333-35.641,10.551-53.188,3.847"/>
<path fill="none" stroke="#E4CCB0" stroke-width="2.0333" stroke-miterlimit="10" d="M119.687,93.938
	c-11.181-1.38-17.183,1.836-27.473,5.645c-10.756,3.979-22.453,6.671-34.013,6.635"/>
<circle fill="#CA6439" cx="79.444" cy="37.541" r="16.77"/>
<line fill="none" stroke="#39464D" stroke-width="2.6304" stroke-linecap="round" stroke-miterlimit="10" x1="121.937" y1="38.535" x2="121.937" y2="76.082"/>
<line fill="none" stroke="#39464D" stroke-width="2.6304" stroke-linecap="round" stroke-miterlimit="10" x1="121.937" y1="38.535" x2="128.192" y2="48.219"/>
<line fill="none" stroke="#39464D" stroke-width="2.6304" stroke-linecap="round" stroke-miterlimit="10" x1="121.937" y1="38.535" x2="115.526" y2="48.455"/>
<line fill="none" stroke="#39464D" stroke-width="2.6304" stroke-linecap="round" stroke-miterlimit="10" x1="121.937" y1="50.319" x2="127.419" y2="58.808"/>
<line fill="none" stroke="#39464D" stroke-width="2.6304" stroke-linecap="round" stroke-miterlimit="10" x1="121.937" y1="50.78" x2="116.542" y2="59.131"/>
<line fill="none" stroke="#39464D" stroke-width="2.6304" stroke-linecap="round" stroke-miterlimit="10" x1="108.307" y1="50.267" x2="108.307" y2="79.307"/>
<line fill="none" stroke="#39464D" stroke-width="2.6304" stroke-linecap="round" stroke-miterlimit="10" x1="108.307" y1="50.267" x2="113.146" y2="57.756"/>
<line fill="none" stroke="#39464D" stroke-width="2.6304" stroke-linecap="round" stroke-miterlimit="10" x1="108.307" y1="50.267" x2="103.353" y2="57.94"/>
<line fill="none" stroke="#39464D" stroke-width="2.6304" stroke-linecap="round" stroke-miterlimit="10" x1="108.307" y1="60.065" x2="112.547" y2="66.63"/>
<line fill="none" stroke="#39464D" stroke-width="2.6304" stroke-linecap="round" stroke-miterlimit="10" x1="108.307" y1="60.422" x2="104.135" y2="66.881"/>
<circle fill="none" stroke="#39464D" stroke-width="3.6421" stroke-miterlimit="10" cx="79.389" cy="56.542" r="54.721"/>
<path fill="#E4CCB0" d="M19.778,145.527c-0.026,1.324-0.311,2.514-0.858,3.566c-0.546,1.054-1.3,1.95-2.262,2.691
	c-0.961,0.74-2.093,1.306-3.393,1.695c-1.301,0.393-2.717,0.586-4.251,0.586c-0.598,0-1.287-0.032-2.066-0.099
	c-0.781-0.064-1.58-0.16-2.399-0.29c-0.819-0.131-1.618-0.308-2.397-0.529c-0.779-0.218-1.469-0.474-2.067-0.76
	c0.13-0.285,0.273-0.644,0.428-1.072c0.157-0.427,0.312-0.774,0.468-1.032l0.235,0.076c1.325,0.417,2.638,0.769,3.938,1.053
	c1.3,0.289,2.666,0.429,4.096,0.429c0.884,0,1.819-0.121,2.807-0.37c0.988-0.246,1.899-0.629,2.73-1.148
	c0.832-0.521,1.521-1.185,2.068-1.991c0.546-0.804,0.82-1.778,0.82-2.923c0-0.312-0.104-0.787-0.312-1.425
	c-0.208-0.638-0.624-1.272-1.248-1.912c-0.624-0.638-1.521-1.201-2.691-1.694c-1.17-0.494-2.717-0.741-4.641-0.741
	c-0.78,0-1.645-0.104-2.594-0.312c-0.95-0.208-1.839-0.548-2.671-1.016c-0.833-0.467-1.528-1.076-2.086-1.831
	c-0.56-0.752-0.838-1.676-0.838-2.768v-0.158c0.051-1.793,0.896-3.197,2.535-4.211c1.637-1.012,3.874-1.545,6.707-1.599
	c0.65,0,1.254,0.014,1.814,0.038c0.558,0.029,1.111,0.093,1.657,0.197s1.099,0.241,1.658,0.409c0.559,0.17,1.15,0.396,1.773,0.683
	l-0.663,2.105c-0.857-0.44-1.755-0.792-2.691-1.053c-0.936-0.261-2.118-0.391-3.548-0.391c-0.989,0-1.899,0.078-2.73,0.233
	c-0.833,0.157-1.554,0.399-2.165,0.723c-0.61,0.326-1.091,0.735-1.443,1.229c-0.351,0.496-0.526,1.066-0.526,1.717
	c0,0.622,0.188,1.177,0.566,1.657c0.376,0.48,0.851,0.892,1.423,1.229c0.571,0.339,1.208,0.591,1.911,0.76
	c0.701,0.17,1.377,0.254,2.027,0.254H9.25c1.17,0,2.38,0.155,3.627,0.467c1.248,0.312,2.385,0.796,3.413,1.445
	c1.027,0.651,1.866,1.47,2.516,2.456c0.65,0.986,0.975,2.145,0.975,3.472v0.155H19.778z"/>
<path fill="#E4CCB0" d="M37.331,153.91c-1.43,0-2.763-0.266-3.997-0.799c-1.235-0.532-2.308-1.248-3.217-2.146
	c-0.91-0.895-1.625-1.948-2.145-3.156c-0.52-1.21-0.779-2.491-0.779-3.844v-16.026h2.261v16.026c0,1.067,0.196,2.066,0.585,3.003
	s0.936,1.75,1.638,2.438c0.703,0.688,1.534,1.236,2.496,1.639c0.961,0.404,2.015,0.605,3.159,0.605c1.118,0,2.178-0.201,3.178-0.605
	c1-0.402,1.872-0.95,2.613-1.639c0.741-0.688,1.326-1.501,1.755-2.438c0.429-0.937,0.644-1.936,0.644-3.003v-16.026h2.262v16.026
	c0,1.353-0.28,2.634-0.839,3.844c-0.558,1.208-1.312,2.261-2.261,3.156c-0.949,0.898-2.061,1.614-3.334,2.146
	C40.074,153.644,38.735,153.91,37.331,153.91z"/>
<path fill="#E4CCB0" d="M77.936,127.938v26.091l-18.329-20.943v20.554h-2.262v-26.248l18.33,20.787v-20.239L77.936,127.938
	L77.936,127.938z"/>
<path fill="#E4CCB0" d="M105.529,145.527c-0.023,1.324-0.312,2.514-0.857,3.566c-0.544,1.054-1.3,1.95-2.261,2.691
	c-0.962,0.74-2.093,1.306-3.392,1.695c-1.3,0.393-2.717,0.586-4.252,0.586c-0.598,0-1.287-0.032-2.066-0.099
	c-0.78-0.064-1.58-0.16-2.399-0.29c-0.818-0.131-1.617-0.308-2.396-0.529c-0.779-0.218-1.47-0.474-2.067-0.76
	c0.128-0.285,0.272-0.644,0.429-1.072c0.155-0.427,0.313-0.774,0.468-1.032l0.234,0.076c1.324,0.417,2.638,0.769,3.938,1.053
	c1.301,0.289,2.664,0.429,4.095,0.429c0.885,0,1.821-0.121,2.809-0.37c0.988-0.246,1.898-0.629,2.731-1.148
	c0.832-0.521,1.52-1.185,2.065-1.991c0.548-0.804,0.82-1.778,0.82-2.923c0-0.312-0.104-0.787-0.312-1.425
	c-0.209-0.638-0.623-1.272-1.249-1.912c-0.623-0.638-1.521-1.201-2.69-1.694c-1.169-0.494-2.717-0.741-4.642-0.741
	c-0.778,0-1.644-0.104-2.593-0.312c-0.95-0.208-1.839-0.548-2.67-1.016c-0.835-0.467-1.528-1.076-2.086-1.831
	c-0.562-0.752-0.841-1.676-0.841-2.768v-0.158c0.052-1.793,0.896-3.197,2.536-4.211c1.639-1.012,3.873-1.545,6.709-1.599
	c0.647,0,1.254,0.014,1.812,0.038c0.559,0.029,1.11,0.093,1.658,0.197c0.544,0.104,1.099,0.241,1.658,0.409
	c0.557,0.17,1.148,0.396,1.773,0.683l-0.663,2.105c-0.857-0.44-1.756-0.792-2.692-1.053c-0.935-0.261-2.118-0.391-3.547-0.391
	c-0.989,0-1.899,0.078-2.73,0.233c-0.833,0.157-1.553,0.399-2.166,0.723c-0.609,0.326-1.092,0.735-1.442,1.229
	c-0.353,0.496-0.526,1.066-0.526,1.717c0,0.622,0.188,1.177,0.566,1.657s0.85,0.892,1.423,1.229c0.572,0.339,1.208,0.591,1.911,0.76
	c0.701,0.17,1.377,0.254,2.027,0.254h0.352c1.169,0,2.379,0.155,3.626,0.467c1.248,0.312,2.388,0.796,3.414,1.445
	c1.026,0.651,1.864,1.47,2.515,2.456s0.975,2.145,0.975,3.472v0.155H105.529z"/>
<path fill="#E4CCB0" d="M114.728,153.637V139.56c-0.054,0-0.224-0.014-0.509-0.041c-0.286-0.025-0.638-0.09-1.053-0.194
	c-0.416-0.104-0.845-0.252-1.287-0.449c-0.442-0.192-0.844-0.46-1.21-0.8l1.639-1.559c0.261,0.209,0.585,0.383,0.975,0.525
	c0.391,0.145,0.872,0.229,1.445,0.254v-9.358h18.172v2.261h-15.911v7.098h13.726v2.263h-13.726v11.816h16.224v2.262H114.728
	L114.728,153.637z"/>
<path fill="#E4CCB0" d="M158.65,127.938v2.261h-9.125v23.438h-2.263v-23.438h-9.203v-2.261H158.65z"/>
<path fill="#E4CCB0" d="M41.164,184.465c-0.013,0.704-0.166,1.336-0.457,1.896c-0.29,0.563-0.691,1.038-1.203,1.434
	c-0.512,0.395-1.113,0.694-1.805,0.902c-0.692,0.208-1.445,0.31-2.26,0.31c-0.32,0-0.685-0.016-1.1-0.052
	c-0.415-0.034-0.84-0.086-1.275-0.155c-0.436-0.067-0.862-0.161-1.276-0.279c-0.415-0.116-0.781-0.251-1.1-0.402
	c0.069-0.154,0.146-0.345,0.229-0.571c0.082-0.229,0.165-0.412,0.248-0.551l0.125,0.044c0.705,0.218,1.402,0.406,2.094,0.558
	c0.692,0.152,1.417,0.229,2.179,0.229c0.47,0,0.967-0.064,1.494-0.198c0.525-0.131,1.009-0.334,1.452-0.61
	c0.441-0.276,0.809-0.629,1.099-1.058c0.29-0.429,0.435-0.947,0.435-1.556c0-0.166-0.055-0.418-0.166-0.758
	c-0.111-0.338-0.332-0.679-0.664-1.016c-0.332-0.34-0.809-0.641-1.431-0.903c-0.622-0.263-1.446-0.395-2.468-0.395
	c-0.415,0-0.875-0.054-1.379-0.164c-0.505-0.112-0.979-0.292-1.422-0.541c-0.442-0.248-0.812-0.572-1.109-0.975
	c-0.296-0.401-0.445-0.892-0.445-1.472v-0.086c0.028-0.952,0.477-1.701,1.349-2.239c0.871-0.538,2.06-0.822,3.568-0.849
	c0.345,0,0.666,0.008,0.964,0.02c0.297,0.013,0.591,0.048,0.881,0.104c0.291,0.054,0.585,0.128,0.883,0.219
	c0.297,0.088,0.611,0.211,0.943,0.362l-0.354,1.12c-0.456-0.237-0.933-0.421-1.431-0.561c-0.498-0.137-1.127-0.209-1.887-0.209
	c-0.525,0-1.01,0.042-1.453,0.126c-0.443,0.083-0.826,0.211-1.15,0.383c-0.326,0.174-0.582,0.391-0.769,0.654
	c-0.187,0.263-0.279,0.567-0.279,0.91c0,0.334,0.1,0.628,0.3,0.884c0.2,0.257,0.453,0.475,0.758,0.652
	c0.304,0.182,0.643,0.316,1.016,0.406c0.373,0.09,0.733,0.135,1.08,0.135h0.186c0.623,0,1.265,0.083,1.93,0.248
	c0.663,0.165,1.269,0.421,1.814,0.768s0.993,0.781,1.338,1.308c0.346,0.526,0.519,1.14,0.519,1.847V184.465L41.164,184.465z"/>
<path fill="#E4CCB0" d="M54.648,181.252v7.526h-1.204v-7.487c-0.028,0-0.118-0.008-0.27-0.021c-0.153-0.013-0.339-0.048-0.561-0.103
	c-0.221-0.055-0.45-0.135-0.685-0.239c-0.234-0.104-0.449-0.247-0.642-0.425l0.871-0.832c0.138,0.113,0.311,0.206,0.52,0.279
	c0.206,0.078,0.462,0.124,0.767,0.135v-4.977h5.994c0.498,0,0.989,0.052,1.474,0.155c0.484,0.104,0.916,0.273,1.297,0.509
	c0.379,0.234,0.688,0.551,0.923,0.943c0.234,0.394,0.353,0.888,0.353,1.484c0,0.414-0.066,0.809-0.196,1.182
	c-0.133,0.373-0.351,0.699-0.654,0.975c-0.305,0.277-0.709,0.496-1.215,0.655c-0.505,0.157-1.137,0.239-1.897,0.239H54.648
	L54.648,181.252z M54.648,176.314v3.774h4.853c0.443,0,0.837-0.022,1.184-0.072c0.344-0.049,0.636-0.138,0.871-0.27
	c0.235-0.131,0.414-0.322,0.539-0.569c0.125-0.25,0.187-0.577,0.187-0.977c0-0.72-0.226-1.214-0.674-1.485
	c-0.45-0.268-1.173-0.403-2.169-0.403h-4.79V176.314z"/>
<path fill="#E4CCB0" d="M80.528,181.271h-3.587l-3.651,7.508h-1.41l3.774-7.569c-0.235-0.041-0.497-0.115-0.787-0.219
	c-0.291-0.104-0.554-0.272-0.789-0.508l0.873-0.83c0.137,0.111,0.31,0.205,0.518,0.281c0.208,0.074,0.457,0.121,0.747,0.134l2.51-5
	l6.742,13.711h-1.348L80.528,181.271z M77.501,180.088h2.489l-1.246-2.552L77.501,180.088z"/>
<path fill="#E4CCB0" d="M106.521,187.141c-0.72,0.591-1.442,1.032-2.169,1.324c-0.725,0.293-1.531,0.439-2.415,0.439
	c-0.969,0-1.879-0.184-2.729-0.551c-0.85-0.365-1.589-0.866-2.22-1.503c-0.629-0.636-1.124-1.376-1.483-2.221
	c-0.359-0.844-0.54-1.734-0.54-2.677c0-0.967,0.181-1.876,0.54-2.728c0.359-0.85,0.854-1.594,1.483-2.229
	c0.631-0.636,1.37-1.138,2.22-1.505c0.851-0.365,1.761-0.549,2.729-0.549c0.732,0,1.432,0.113,2.093,0.342
	c0.665,0.229,1.372,0.605,2.117,1.131l-0.933,0.727c-0.542-0.387-1.063-0.648-1.576-0.788c-0.511-0.138-1.079-0.208-1.701-0.208
	c-0.804,0-1.554,0.152-2.25,0.457c-0.7,0.305-1.31,0.717-1.826,1.236c-0.521,0.521-0.933,1.138-1.236,1.849
	c-0.303,0.715-0.457,1.473-0.457,2.276c0,0.777,0.154,1.517,0.457,2.212c0.304,0.7,0.716,1.31,1.236,1.831
	c0.517,0.52,1.126,0.931,1.826,1.236c0.694,0.305,1.446,0.456,2.25,0.456c0.358,0,0.694-0.024,1.006-0.072
	c0.311-0.048,0.611-0.125,0.902-0.229c0.289-0.102,0.573-0.244,0.85-0.425c0.278-0.181,0.566-0.395,0.871-0.643L106.521,187.141z"/>
<path fill="#E4CCB0" d="M118.322,188.779v-7.487c-0.025,0-0.116-0.008-0.269-0.021c-0.151-0.013-0.339-0.048-0.559-0.103
	c-0.223-0.055-0.449-0.135-0.685-0.239c-0.236-0.104-0.449-0.247-0.642-0.425l0.87-0.832c0.137,0.113,0.311,0.206,0.52,0.279
	c0.206,0.078,0.463,0.124,0.766,0.135v-4.977h9.667v1.204h-8.462v3.774h7.301v1.203h-7.301v6.286h8.63v1.204h-9.837V188.779z"/>
<rect x="0.452" y="166.545" fill="none" stroke="#E4CCB0" stroke-width="0.9035" stroke-miterlimit="10" width="158.407" height="31.622"/>
</svg>
