<?xml version="1.0" encoding="utf-8"?>
<!-- Generator: Adobe Illustrator 15.1.0, SVG Export Plug-In  -->
<!DOCTYPE svg PUBLIC "-//W3C//DTD SVG 1.1//EN" "http://www.w3.org/Graphics/SVG/1.1/DTD/svg11.dtd" [
	<!ENTITY ns_flows "http://ns.adobe.com/Flows/1.0/">
]>
<svg version="1.1"
	 xmlns="http://www.w3.org/2000/svg" xmlns:xlink="http://www.w3.org/1999/xlink" xmlns:a="http://ns.adobe.com/AdobeSVGViewerExtensions/3.0/"
	 x="0px" y="0px" width="149px" height="46px" viewBox="-0.133 -0.99 149 46"
	 overflow="visible" enable-background="new -0.133 -0.99 149 46" xml:space="preserve">
<defs>
</defs>
<path fill="#38454C" d="M38.008,6.824C33.937,2.752,28.521,0.51,22.762,0.51c-5.758,0-11.172,2.243-15.245,6.314
	c-4.071,4.072-6.314,9.486-6.314,15.245c0,1.601,0.174,3.174,0.511,4.7c0.562,2.539,1.579,4.944,3.01,7.118
	c0.804,1.221,1.737,2.369,2.794,3.427c4.072,4.071,9.486,6.314,15.245,6.314s11.174-2.243,15.246-6.314
	c1.659-1.658,2.942-3.4,3.967-5.437l0.069-0.139c0.183-0.363,0.296-0.601,0.457-0.974l0.058-0.13
	c1.156-2.668,1.765-5.571,1.765-8.566C44.324,16.311,42.08,10.896,38.008,6.824z M41.738,30.209
	c-1.654-0.733-3.516-1.148-5.309-1.148c-3.37,0-6.59,1.229-9.998,2.53c-2.85,1.088-5.795,2.212-8.921,2.613
	c-0.481,0.062-0.963,0.093-1.433,0.093c-3.79,0-7.054-2.087-8.121-5.193c-0.997-2.898,0.183-6.013,3.154-8.33l1.053-0.821
	l-1.309-0.261c-0.949-0.188-1.841-0.284-2.652-0.284c-1.745,0-3.176,0.438-4.254,1.3c-0.72,0.577-1.271,1.334-1.648,2.258
	c-0.013-0.297-0.021-0.596-0.021-0.896c0-11.294,9.188-20.483,20.483-20.483s20.485,9.189,20.485,20.483
	C43.248,24.939,42.806,27.728,41.738,30.209z"/>
<path fill="#E3CCAF" d="M10.94,19.709l-0.085-0.017c-0.949-0.188-1.841-0.285-2.652-0.285c-1.745,0-3.176,0.438-4.254,1.301
	c-0.721,0.577-1.271,1.333-1.648,2.258c-0.013-0.297-0.021-0.596-0.021-0.896c0-11.294,9.188-20.484,20.483-20.484
	s20.485,9.189,20.485,20.484c0,2.87-0.441,5.658-1.51,8.14c-1.654-0.734-3.516-1.149-5.309-1.149c-3.37,0-6.59,1.229-9.998,2.53
	c-2.85,1.088-5.795,2.212-8.921,2.613c-0.481,0.062-0.963,0.093-1.433,0.093c-3.79,0-7.054-2.087-8.121-5.193
	c-0.997-2.897,0.183-6.013,3.154-8.329l0.078-0.062C11.189,20.713,12.417,20.116,10.94,19.709z"/>
<path fill="#38454C" d="M15.516,26.846c-2.515-1.956-5.183-2.475-8.148,0.857l0,0c-0.961,4.124,2.1,8.335,6.559,7.505
	c-2.224,0.414-3.648-7.312,1.42-7.62C15.347,27.588,16.558,27.655,15.516,26.846z"/>
<path fill="none" stroke="#E3CCAF" stroke-width="0.8031" stroke-miterlimit="10" d="M8.042,26.04
	c-0.574,3.822,3.914,7.489,5.695,7.646"/>
<path fill="none" stroke="#E3CCAF" stroke-width="0.807" stroke-miterlimit="10" d="M41.203,33.531
	c-6.363-1.541-8.812-0.075-13.67,1.723c-5.723,2.117-14.146,4.188-21.111,1.527"/>
<path fill="none" stroke="#E3CCAF" stroke-width="0.807" stroke-miterlimit="10" d="M38.437,37.285
	c-4.438-0.547-6.82,0.729-10.904,2.24c-4.27,1.58-8.912,2.648-13.5,2.634"/>
<circle fill="#C9643A" cx="22.464" cy="14.9" r="6.656"/>
<line fill="none" stroke="#38454C" stroke-width="1.044" stroke-linecap="round" stroke-miterlimit="10" x1="39.33" y1="15.294" x2="39.33" y2="30.197"/>
<line fill="none" stroke="#38454C" stroke-width="1.044" stroke-linecap="round" stroke-miterlimit="10" x1="39.33" y1="15.294" x2="41.812" y2="19.139"/>
<line fill="none" stroke="#38454C" stroke-width="1.044" stroke-linecap="round" stroke-miterlimit="10" x1="39.33" y1="15.294" x2="36.786" y2="19.232"/>
<line fill="none" stroke="#38454C" stroke-width="1.044" stroke-linecap="round" stroke-miterlimit="10" x1="39.33" y1="19.972" x2="41.505" y2="23.341"/>
<line fill="none" stroke="#38454C" stroke-width="1.044" stroke-linecap="round" stroke-miterlimit="10" x1="39.33" y1="20.155" x2="37.189" y2="23.469"/>
<line fill="none" stroke="#38454C" stroke-width="1.044" stroke-linecap="round" stroke-miterlimit="10" x1="33.919" y1="19.951" x2="33.919" y2="31.478"/>
<line fill="none" stroke="#38454C" stroke-width="1.044" stroke-linecap="round" stroke-miterlimit="10" x1="33.919" y1="19.951" x2="35.84" y2="22.924"/>
<line fill="none" stroke="#38454C" stroke-width="1.044" stroke-linecap="round" stroke-miterlimit="10" x1="33.919" y1="19.951" x2="31.953" y2="22.997"/>
<line fill="none" stroke="#38454C" stroke-width="1.044" stroke-linecap="round" stroke-miterlimit="10" x1="33.919" y1="23.84" x2="35.602" y2="26.445"/>
<line fill="none" stroke="#38454C" stroke-width="1.044" stroke-linecap="round" stroke-miterlimit="10" x1="33.919" y1="23.982" x2="32.264" y2="26.545"/>
<circle fill="none" stroke="#38454C" stroke-width="1.4456" stroke-miterlimit="10" cx="22.442" cy="22.442" r="21.719"/>
<path fill="#E3CCAF" d="M64.668,14.529c-0.016,0.792-0.187,1.503-0.513,2.132s-0.777,1.166-1.352,1.608
	c-0.575,0.443-1.251,0.78-2.028,1.013c-0.778,0.235-1.624,0.351-2.541,0.351c-0.357,0-0.77-0.02-1.235-0.06
	c-0.466-0.038-0.944-0.095-1.434-0.173c-0.489-0.078-0.967-0.184-1.433-0.316c-0.466-0.13-0.878-0.283-1.235-0.454
	c0.078-0.171,0.163-0.384,0.256-0.641c0.094-0.255,0.187-0.462,0.28-0.617l0.14,0.046c0.792,0.249,1.577,0.458,2.354,0.628
	c0.776,0.172,1.593,0.257,2.447,0.257c0.528,0,1.087-0.073,1.678-0.221c0.591-0.147,1.135-0.376,1.632-0.688
	c0.497-0.31,0.909-0.708,1.236-1.188c0.327-0.481,0.49-1.064,0.49-1.748c0-0.187-0.062-0.471-0.187-0.851
	c-0.124-0.381-0.372-0.761-0.745-1.142s-0.909-0.719-1.608-1.013c-0.699-0.296-1.624-0.444-2.773-0.444
	c-0.466,0-0.983-0.061-1.55-0.186s-1.099-0.328-1.597-0.607c-0.497-0.279-0.913-0.644-1.247-1.094
	c-0.334-0.45-0.501-1.002-0.501-1.654V7.373c0.031-1.072,0.536-1.911,1.515-2.518c0.979-0.604,2.315-0.923,4.009-0.955
	c0.388,0,0.75,0.008,1.084,0.023c0.334,0.017,0.664,0.056,0.991,0.117c0.326,0.062,0.656,0.144,0.991,0.245
	c0.334,0.102,0.688,0.237,1.06,0.408l-0.396,1.259c-0.513-0.264-1.049-0.475-1.608-0.629c-0.56-0.156-1.267-0.233-2.121-0.233
	c-0.591,0-1.135,0.046-1.632,0.14c-0.497,0.094-0.928,0.237-1.293,0.432c-0.365,0.194-0.652,0.439-0.862,0.734
	c-0.21,0.296-0.314,0.637-0.314,1.025c0,0.373,0.112,0.703,0.338,0.991c0.225,0.288,0.509,0.533,0.851,0.735
	c0.342,0.201,0.723,0.353,1.143,0.454C57.373,9.7,57.777,9.75,58.166,9.75h0.209c0.7,0,1.422,0.094,2.168,0.279
	c0.746,0.187,1.425,0.475,2.04,0.863c0.614,0.389,1.115,0.878,1.503,1.468c0.389,0.59,0.583,1.283,0.583,2.075L64.668,14.529
	L64.668,14.529z"/>
<path fill="#E3CCAF" d="M75.158,19.539c-0.855,0-1.651-0.159-2.389-0.478c-0.738-0.319-1.379-0.746-1.922-1.283
	c-0.544-0.535-0.972-1.165-1.282-1.887c-0.311-0.724-0.466-1.488-0.466-2.296V4.017h1.352v9.579c0,0.638,0.117,1.235,0.35,1.794
	c0.233,0.56,0.559,1.046,0.979,1.457c0.42,0.412,0.917,0.738,1.492,0.979c0.574,0.241,1.204,0.362,1.888,0.362
	c0.668,0,1.301-0.121,1.899-0.362c0.598-0.241,1.119-0.568,1.562-0.979c0.443-0.411,0.792-0.897,1.049-1.457
	c0.256-0.559,0.385-1.156,0.385-1.794V4.017h1.351v9.579c0,0.808-0.167,1.573-0.501,2.296c-0.334,0.722-0.784,1.351-1.352,1.887
	c-0.567,0.537-1.231,0.964-1.993,1.283C76.797,19.38,75.997,19.539,75.158,19.539z"/>
<path fill="#E3CCAF" d="M99.425,4.017v15.593L88.471,7.094v12.283h-1.352V3.69l10.955,12.424V4.018L99.425,4.017L99.425,4.017z"/>
<path fill="#E3CCAF" d="M115.917,14.529c-0.016,0.792-0.187,1.503-0.513,2.132c-0.325,0.629-0.777,1.166-1.353,1.608
	c-0.574,0.443-1.25,0.78-2.025,1.013c-0.778,0.235-1.624,0.351-2.541,0.351c-0.358,0-0.77-0.02-1.235-0.06
	c-0.467-0.038-0.944-0.095-1.435-0.173c-0.489-0.078-0.966-0.184-1.432-0.316c-0.466-0.13-0.879-0.283-1.236-0.454
	c0.077-0.171,0.164-0.384,0.256-0.641c0.094-0.255,0.188-0.462,0.28-0.617l0.14,0.046c0.793,0.249,1.577,0.458,2.354,0.628
	c0.777,0.172,1.593,0.257,2.448,0.257c0.528,0,1.088-0.073,1.678-0.221c0.59-0.147,1.134-0.376,1.633-0.688
	c0.496-0.31,0.907-0.708,1.234-1.188c0.327-0.481,0.49-1.064,0.49-1.748c0-0.187-0.062-0.471-0.188-0.851
	c-0.124-0.381-0.373-0.761-0.746-1.142c-0.372-0.381-0.908-0.719-1.607-1.013c-0.699-0.296-1.624-0.444-2.774-0.444
	c-0.466,0-0.982-0.061-1.55-0.186s-1.099-0.328-1.596-0.607c-0.498-0.279-0.913-0.644-1.247-1.094
	c-0.335-0.45-0.501-1.002-0.501-1.654V7.373c0.03-1.072,0.535-1.911,1.515-2.518c0.979-0.604,2.315-0.923,4.01-0.955
	c0.387,0,0.749,0.008,1.083,0.023c0.333,0.017,0.664,0.056,0.99,0.117c0.326,0.062,0.657,0.144,0.991,0.245
	c0.334,0.102,0.687,0.237,1.061,0.408l-0.396,1.259c-0.513-0.264-1.049-0.475-1.608-0.629c-0.559-0.156-1.267-0.233-2.12-0.233
	c-0.592,0-1.135,0.046-1.633,0.14c-0.497,0.094-0.928,0.237-1.294,0.432c-0.364,0.194-0.651,0.439-0.861,0.734
	c-0.211,0.296-0.314,0.637-0.314,1.025c0,0.373,0.111,0.703,0.339,0.991c0.225,0.288,0.508,0.533,0.85,0.735
	c0.342,0.201,0.723,0.353,1.142,0.454c0.419,0.101,0.823,0.151,1.213,0.151h0.209c0.699,0,1.423,0.094,2.167,0.279
	c0.746,0.187,1.427,0.475,2.04,0.863c0.614,0.389,1.115,0.878,1.504,1.468c0.389,0.59,0.582,1.283,0.582,2.075L115.917,14.529
	L115.917,14.529z"/>
<path fill="#E3CCAF" d="M121.413,19.376v-8.414c-0.031,0-0.133-0.009-0.303-0.024c-0.172-0.015-0.381-0.054-0.629-0.116
	c-0.25-0.062-0.506-0.151-0.77-0.269c-0.266-0.115-0.504-0.275-0.723-0.478l0.979-0.932c0.156,0.125,0.35,0.229,0.582,0.314
	c0.234,0.086,0.521,0.137,0.863,0.152V4.017h10.861v1.352h-9.51V9.61h8.203v1.353h-8.203v7.062h9.697v1.352H121.413L121.413,19.376z
	"/>
<path fill="#E3CCAF" d="M147.664,4.017v1.352h-5.455v14.008h-1.352V5.368h-5.5V4.017H147.664z"/>
<path fill="#E3CCAF" d="M77.449,34.8c-0.008,0.422-0.1,0.799-0.273,1.134c-0.173,0.335-0.413,0.62-0.719,0.855
	s-0.665,0.415-1.079,0.539c-0.414,0.125-0.864,0.186-1.351,0.186c-0.191,0-0.41-0.01-0.658-0.031
	c-0.248-0.02-0.502-0.051-0.762-0.093c-0.261-0.04-0.515-0.096-0.763-0.167c-0.248-0.069-0.467-0.15-0.657-0.24
	c0.042-0.092,0.087-0.206,0.137-0.342c0.049-0.136,0.099-0.246,0.148-0.328l0.075,0.025c0.421,0.131,0.838,0.243,1.251,0.334
	c0.414,0.091,0.847,0.137,1.302,0.137c0.28,0,0.578-0.04,0.893-0.119c0.314-0.078,0.603-0.199,0.867-0.365
	c0.265-0.165,0.483-0.376,0.657-0.632s0.26-0.566,0.26-0.93c0-0.099-0.033-0.25-0.099-0.453c-0.066-0.202-0.199-0.404-0.397-0.606
	c-0.199-0.203-0.483-0.382-0.855-0.54c-0.372-0.156-0.864-0.235-1.475-0.235c-0.248,0-0.523-0.032-0.825-0.099
	s-0.584-0.175-0.849-0.323s-0.485-0.342-0.663-0.582s-0.266-0.533-0.266-0.881v-0.05c0.016-0.569,0.285-1.017,0.805-1.339
	c0.521-0.322,1.232-0.49,2.132-0.507c0.207,0,0.399,0.004,0.577,0.011c0.177,0.009,0.353,0.029,0.527,0.063
	c0.173,0.032,0.349,0.076,0.527,0.13c0.178,0.053,0.365,0.126,0.563,0.216l-0.211,0.669c-0.272-0.142-0.558-0.252-0.855-0.335
	c-0.297-0.082-0.673-0.125-1.128-0.125c-0.314,0-0.603,0.026-0.868,0.076c-0.264,0.049-0.494,0.126-0.688,0.229
	c-0.195,0.104-0.347,0.233-0.459,0.391s-0.167,0.339-0.167,0.544c0,0.199,0.06,0.376,0.18,0.528c0.12,0.153,0.271,0.283,0.453,0.39
	c0.182,0.108,0.384,0.189,0.608,0.243c0.222,0.054,0.438,0.08,0.645,0.08h0.111c0.372,0,0.756,0.05,1.153,0.148
	c0.396,0.099,0.758,0.252,1.084,0.458c0.327,0.208,0.593,0.468,0.8,0.782c0.206,0.313,0.31,0.682,0.31,1.104V34.8L77.449,34.8z"/>
<path fill="#E3CCAF" d="M85.507,32.88v4.499h-0.719v-4.477c-0.017,0-0.07-0.004-0.161-0.012c-0.091-0.009-0.203-0.029-0.335-0.062
	c-0.132-0.033-0.269-0.08-0.409-0.143c-0.14-0.062-0.269-0.147-0.384-0.254l0.521-0.497c0.082,0.066,0.186,0.122,0.311,0.167
	c0.123,0.047,0.276,0.073,0.458,0.08v-2.974h3.582c0.298,0,0.592,0.03,0.881,0.093c0.289,0.062,0.548,0.164,0.775,0.304
	c0.227,0.14,0.411,0.329,0.551,0.564c0.141,0.236,0.211,0.531,0.211,0.886c0,0.248-0.039,0.484-0.117,0.707
	c-0.079,0.223-0.209,0.418-0.391,0.582c-0.183,0.166-0.424,0.297-0.726,0.392s-0.68,0.144-1.135,0.144H85.507L85.507,32.88z
	 M85.507,29.928v2.256h2.9c0.266,0,0.501-0.014,0.708-0.043c0.205-0.028,0.38-0.082,0.521-0.161
	c0.141-0.078,0.247-0.192,0.322-0.341c0.074-0.149,0.111-0.344,0.111-0.583c0-0.431-0.135-0.725-0.403-0.888
	c-0.269-0.16-0.701-0.242-1.296-0.242h-2.863V29.928z"/>
<path fill="#E3CCAF" d="M100.975,32.891h-2.144l-2.183,4.488h-0.842l2.255-4.525c-0.14-0.024-0.297-0.068-0.471-0.13
	c-0.174-0.062-0.331-0.163-0.472-0.305l0.521-0.495c0.082,0.066,0.186,0.122,0.311,0.168c0.123,0.044,0.272,0.072,0.445,0.08
	l1.501-2.989l4.029,8.195h-0.806L100.975,32.891z M99.166,32.184h1.487l-0.744-1.524L99.166,32.184z"/>
<path fill="#E3CCAF" d="M116.508,36.4c-0.428,0.353-0.861,0.617-1.295,0.791c-0.433,0.175-0.915,0.263-1.443,0.263
	c-0.579,0-1.123-0.109-1.631-0.329c-0.509-0.219-0.95-0.519-1.326-0.898c-0.377-0.38-0.673-0.822-0.887-1.327
	c-0.215-0.504-0.323-1.037-0.323-1.6c0-0.578,0.108-1.121,0.323-1.63c0.214-0.508,0.51-0.952,0.887-1.333
	c0.376-0.38,0.817-0.68,1.326-0.899c0.508-0.218,1.052-0.327,1.631-0.327c0.438,0,0.855,0.067,1.251,0.204
	c0.397,0.137,0.82,0.362,1.265,0.676l-0.558,0.435c-0.323-0.231-0.635-0.389-0.94-0.472c-0.307-0.083-0.646-0.125-1.018-0.125
	c-0.479,0-0.929,0.091-1.346,0.273s-0.781,0.429-1.09,0.739c-0.312,0.311-0.558,0.68-0.739,1.105s-0.272,0.88-0.272,1.359
	c0,0.464,0.091,0.906,0.272,1.322c0.182,0.419,0.428,0.783,0.739,1.094c0.309,0.311,0.673,0.558,1.09,0.739
	c0.416,0.182,0.866,0.273,1.346,0.273c0.215,0,0.415-0.016,0.601-0.044c0.187-0.028,0.365-0.074,0.54-0.136
	c0.173-0.062,0.343-0.147,0.508-0.254c0.166-0.108,0.339-0.236,0.521-0.384L116.508,36.4z"/>
<path fill="#E3CCAF" d="M123.563,37.379v-4.477c-0.018,0-0.07-0.004-0.162-0.012c-0.09-0.009-0.201-0.029-0.334-0.062
	c-0.133-0.033-0.268-0.08-0.41-0.143c-0.139-0.062-0.268-0.147-0.383-0.254l0.521-0.497c0.082,0.066,0.186,0.122,0.311,0.167
	c0.123,0.047,0.275,0.073,0.457,0.08v-2.974h5.777v0.719h-5.057v2.256h4.363v0.72h-4.363v3.757h5.156v0.719H123.563L123.563,37.379z
	"/>
<rect x="53.117" y="24.091" fill="none" stroke="#E3CCAF" stroke-width="0.54" stroke-miterlimit="10" width="94.67" height="18.898"/>
</svg>
