<?xml version="1.0" encoding="utf-8"?>
<!-- Generator: Adobe Illustrator 15.1.0, SVG Export Plug-In  -->
<!DOCTYPE svg PUBLIC "-//W3C//DTD SVG 1.1//EN" "http://www.w3.org/Graphics/SVG/1.1/DTD/svg11.dtd" [
	<!ENTITY ns_flows "http://ns.adobe.com/Flows/1.0/">
]>
<svg version="1.1"
	 xmlns="http://www.w3.org/2000/svg" xmlns:xlink="http://www.w3.org/1999/xlink" xmlns:a="http://ns.adobe.com/AdobeSVGViewerExtensions/3.0/"
	 x="0px" y="0px" width="1024px" height="600px" viewBox="-26 -22.525 1024 600"
	 overflow="visible" enable-background="new -26 -22.525 1024 600" xml:space="preserve">
<defs>
</defs>
<polygon fill="#E45126" points="27.07,509.445 0,205.825 297.45,205.825 270.352,509.396 148.543,543.166 "/>
<polygon fill="#F1682B" points="148.725,517.353 247.152,490.066 270.31,230.65 148.725,230.65 "/>
<polygon fill="#EBEBEB" points="148.725,343.259 99.45,343.259 96.046,305.127 148.725,305.127 148.725,267.888 148.596,267.888 
	55.35,267.888 56.242,277.879 65.394,380.495 148.725,380.495 "/>
<polygon fill="#EBEBEB" points="148.725,439.966 148.562,440.013 107.09,428.813 104.438,399.116 84.287,399.116 67.058,399.116 
	72.275,457.583 148.553,478.759 148.725,478.71 "/>
<path fill="#020202" d="M27.675,123.313h18.924v18.696H63.91v-18.696h18.925v56.618H63.911v-18.958h-17.31v18.958H27.675V123.313
	L27.675,123.313z"/>
<path fill="#020202" d="M107.719,142.089h-16.66v-18.775h52.252v18.775h-16.667v37.843H107.72L107.719,142.089L107.719,142.089z"/>
<path fill="#020202" d="M151.604,123.313h19.733l12.137,19.894l12.127-19.894h19.739v56.618h-18.846v-28.063l-13.021,20.13h-0.325
	l-13.028-20.13v28.063h-18.517L151.604,123.313L151.604,123.313z"/>
<path fill="#020202" d="M224.758,123.313h18.929v37.903h26.612v18.714h-45.542L224.758,123.313L224.758,123.313z"/>
<polygon fill="#FFFFFF" points="148.596,343.259 148.596,380.495 194.45,380.495 190.128,428.788 148.596,440 148.596,478.742 
	224.936,457.583 225.495,451.292 234.246,353.258 235.154,343.259 225.12,343.259 "/>
<polygon fill="#FFFFFF" points="148.596,267.888 148.596,291.016 148.596,305.036 148.596,305.127 238.423,305.127 238.423,305.127 
	238.543,305.127 239.29,296.757 240.986,277.879 241.877,267.888 "/>
<polygon fill="#151515" points="907.643,138.86 882.954,138.86 908.629,166.719 908.629,179.979 855.746,179.979 855.746,164.454 
	881.416,164.454 855.746,136.594 855.746,123.313 907.643,123.313 "/>
<polygon fill="#151515" points="845.265,138.86 820.576,138.86 846.25,166.719 846.25,179.979 793.367,179.979 793.367,164.454 
	819.039,164.454 793.367,136.594 793.367,123.313 845.265,123.313 "/>
<polygon fill="#151515" points="783.496,139.491 756.856,139.491 756.856,163.804 783.496,163.804 783.496,179.979 737.923,179.979 
	737.923,123.313 783.496,123.313 "/>
<polygon fill="#1673B6" points="701.62,509.469 674.55,205.849 972,205.849 944.903,509.42 823.093,543.19 "/>
<polygon fill="#35A9DB" points="823.276,517.379 921.703,490.09 944.86,230.675 823.276,230.675 "/>
<polygon fill="#FFFFFF" points="823.275,340.675 872.551,340.675 875.953,302.543 823.275,302.543 823.275,265.304 823.404,265.304 
	916.65,265.304 915.758,275.295 906.605,377.911 823.275,377.911 "/>
<polygon fill="#EBEBEB" points="823.498,437.382 823.336,437.429 781.863,426.229 779.212,396.532 759.061,396.532 741.832,396.532 
	747.049,455 823.326,476.176 823.498,476.127 "/>
<polygon fill="#FFFFFF" points="869.386,376.334 864.901,426.204 823.369,437.416 823.369,476.157 899.709,455 900.269,448.709 
	906.746,376.334 "/>
<polygon fill="#EBEBEB" points="823.404,265.304 823.404,288.432 823.404,302.452 823.404,302.543 733.576,302.543 733.576,302.543 
	733.457,302.543 732.711,294.173 731.014,275.295 730.123,265.304 "/>
<polygon fill="#EBEBEB" points="823.275,340.679 823.275,363.808 823.275,377.825 823.275,377.917 782.447,377.917 782.447,377.917 
	782.328,377.917 781.582,369.548 779.885,350.67 778.994,340.679 "/>
<polygon fill="#E4A227" points="364.345,386.229 337.275,82.607 634.725,82.607 607.627,386.18 485.818,419.95 "/>
<polygon fill="#F0BF26" points="485.75,393.762 584.178,366.475 607.336,107.058 485.75,107.058 "/>
<polygon fill="#151515" points="538.936,15.546 514.246,15.546 539.922,43.406 539.922,56.666 487.039,56.666 487.039,41.14 
	512.709,41.14 487.039,13.281 487.039,0 538.936,0 "/>
<path fill="#020202" d="M477.621,0.025v56.617h-45.543V37.928h26.613V0.025h18.928H477.621z"/>
<polygon fill="#EBEBEB" points="485.693,316.401 485.531,316.448 444.059,305.249 441.406,275.55 421.256,275.55 404.027,275.55 
	409.244,334.018 485.521,355.194 485.693,355.145 "/>
<polygon fill="#EBEBEB" points="490.709,256.912 490.709,219.675 444.855,219.675 450.232,161.233 490.812,160.152 490.709,121.429 
	416.565,121.429 413.811,148.878 405.059,246.913 404.151,256.912 414.186,256.912 "/>
<polygon fill="#FFFFFF" points="490.457,160.204 490.62,160.158 531.291,162.607 534.742,201.054 554.893,201.054 572.123,201.054 
	565.609,129.108 490.629,121.412 490.457,121.46 "/>
<polyline fill="#FFFFFF" points="568.284,160.318 565.093,121.429 486.49,121.429 486.49,145.581 486.49,160.221 486.49,160.318 
	568.284,160.318 "/>
<polygon fill="#FFFFFF" points="485.564,219.693 485.564,256.929 531.418,256.929 527.096,305.223 485.564,316.434 485.564,355.176 
	561.904,334.018 562.463,327.727 571.215,229.692 572.123,219.693 562.088,219.693 "/>
</svg>
