<?xml version="1.0" encoding="utf-8"?>
<!-- Generator: Adobe Illustrator 15.1.0, SVG Export Plug-In  -->
<!DOCTYPE svg PUBLIC "-//W3C//DTD SVG 1.1//EN" "http://www.w3.org/Graphics/SVG/1.1/DTD/svg11.dtd" [
	<!ENTITY ns_flows "http://ns.adobe.com/Flows/1.0/">
]>
<svg version="1.1"
	 xmlns="http://www.w3.org/2000/svg" xmlns:xlink="http://www.w3.org/1999/xlink" xmlns:a="http://ns.adobe.com/AdobeSVGViewerExtensions/3.0/"
	 x="0px" y="0px" width="300px" height="177px" viewBox="-66.76 -2 300 177"
	 overflow="visible" enable-background="new -66.76 -2 300 177" xml:space="preserve">
<defs>
</defs>
<path fill="#38454C" d="M140.771,25.275c-15.08-15.081-35.135-23.388-56.465-23.388c-21.329,0-41.379,8.307-56.464,23.388
	C12.762,40.358,4.457,60.409,4.457,81.739c0,5.927,0.645,11.756,1.893,17.408c2.082,9.402,5.85,18.31,11.148,26.362
	c2.976,4.523,6.432,8.776,10.346,12.691c15.083,15.081,35.135,23.387,56.462,23.387c21.33,0,41.385-8.308,56.465-23.387
	c6.144-6.139,10.899-12.594,14.691-20.133l0.26-0.514c0.674-1.345,1.094-2.225,1.691-3.605l0.214-0.483
	c4.281-9.884,6.535-20.633,6.535-31.726C164.163,60.409,155.851,40.358,140.771,25.275z M154.583,111.886
	c-6.124-2.718-13.021-4.255-19.659-4.255c-12.483,0-24.409,4.553-37.032,9.371c-10.554,4.029-21.461,8.194-33.041,9.679
	c-1.781,0.229-3.565,0.345-5.305,0.345c-14.037,0-26.123-7.73-30.078-19.235C25.777,97.057,30.145,85.52,41.151,76.94l3.9-3.041
	l-4.849-0.967c-3.513-0.697-6.818-1.054-9.824-1.054c-6.462,0-11.763,1.62-15.756,4.817c-2.666,2.136-4.708,4.94-6.104,8.362
	c-0.049-1.1-0.077-2.207-0.077-3.318c0-41.831,34.031-75.867,75.865-75.867c41.832,0,75.868,34.036,75.868,75.867
	C160.175,92.367,158.542,102.694,154.583,111.886z"/>
<path fill="#E3CCAF" d="M40.521,72.996l-0.317-0.063c-3.513-0.697-6.818-1.054-9.824-1.054c-6.462,0-11.763,1.62-15.756,4.817
	c-2.666,2.136-4.708,4.94-6.104,8.362c-0.049-1.1-0.077-2.207-0.077-3.318c0-41.831,34.031-75.867,75.864-75.867
	c41.834,0,75.869,34.036,75.869,75.867c0,10.628-1.633,20.955-5.592,30.146c-6.124-2.718-13.021-4.255-19.659-4.255
	c-12.483,0-24.409,4.553-37.032,9.371c-10.554,4.029-21.461,8.194-33.041,9.679c-1.781,0.229-3.565,0.345-5.305,0.345
	c-14.037,0-26.123-7.73-30.078-19.235c-3.691-10.734,0.676-22.271,11.683-30.851l0.289-0.227
	C41.44,76.713,45.992,74.504,40.521,72.996z"/>
<path fill="#38454C" d="M57.466,99.429c-9.314-7.244-19.193-9.164-30.178,3.176l0,0c-3.559,15.271,7.775,30.869,24.29,27.795
	c-8.234,1.532-13.513-27.08,5.262-28.222C56.84,102.179,61.327,102.428,57.466,99.429z"/>
<path fill="none" stroke="#E3CCAF" stroke-width="2.9744" stroke-miterlimit="10" d="M29.786,96.444
	c-2.125,14.157,14.496,27.736,21.093,28.317"/>
<path fill="none" stroke="#E3CCAF" stroke-width="2.989" stroke-miterlimit="10" d="M152.605,124.189
	c-23.567-5.705-32.642-0.277-50.633,6.38c-21.193,7.841-52.393,15.511-78.188,5.656"/>
<path fill="none" stroke="#E3CCAF" stroke-width="2.989" stroke-miterlimit="10" d="M142.357,138.091
	c-16.437-2.028-25.258,2.701-40.385,8.297c-15.812,5.851-33.007,9.807-50,9.754"/>
<circle fill="#C9643A" cx="83.201" cy="55.186" r="24.652"/>
<line fill="none" stroke="#38454C" stroke-width="3.8667" stroke-linecap="round" stroke-miterlimit="10" x1="145.665" y1="56.646" x2="145.665" y2="111.841"/>
<line fill="none" stroke="#38454C" stroke-width="3.8667" stroke-linecap="round" stroke-miterlimit="10" x1="145.665" y1="56.646" x2="154.861" y2="70.883"/>
<line fill="none" stroke="#38454C" stroke-width="3.8667" stroke-linecap="round" stroke-miterlimit="10" x1="145.665" y1="56.646" x2="136.243" y2="71.23"/>
<line fill="none" stroke="#38454C" stroke-width="3.8667" stroke-linecap="round" stroke-miterlimit="10" x1="145.665" y1="73.97" x2="153.724" y2="86.448"/>
<line fill="none" stroke="#38454C" stroke-width="3.8667" stroke-linecap="round" stroke-miterlimit="10" x1="145.665" y1="74.647" x2="137.736" y2="86.923"/>
<line fill="none" stroke="#38454C" stroke-width="3.8667" stroke-linecap="round" stroke-miterlimit="10" x1="125.629" y1="73.892" x2="125.629" y2="116.583"/>
<line fill="none" stroke="#38454C" stroke-width="3.8667" stroke-linecap="round" stroke-miterlimit="10" x1="125.629" y1="73.892" x2="132.742" y2="84.903"/>
<line fill="none" stroke="#38454C" stroke-width="3.8667" stroke-linecap="round" stroke-miterlimit="10" x1="125.629" y1="73.892" x2="118.345" y2="85.173"/>
<line fill="none" stroke="#38454C" stroke-width="3.8667" stroke-linecap="round" stroke-miterlimit="10" x1="125.629" y1="88.297" x2="131.861" y2="97.947"/>
<line fill="none" stroke="#38454C" stroke-width="3.8667" stroke-linecap="round" stroke-miterlimit="10" x1="125.629" y1="88.822" x2="119.497" y2="98.316"/>
<circle fill="none" stroke="#38454C" stroke-width="5.3539" stroke-miterlimit="10" cx="83.118" cy="83.118" r="80.441"/>
</svg>
