<?xml version="1.0" encoding="utf-8"?>
<!-- Generator: Adobe Illustrator 15.1.0, SVG Export Plug-In . SVG Version: 6.00 Build 0)  -->
<!DOCTYPE svg PUBLIC "-//W3C//DTD SVG 1.1//EN" "http://www.w3.org/Graphics/SVG/1.1/DTD/svg11.dtd">
<svg version="1.1" id="Layer_1" xmlns="http://www.w3.org/2000/svg" xmlns:xlink="http://www.w3.org/1999/xlink" x="0px" y="0px"
	 width="300px" height="123px" viewBox="0 177 300 123" enable-background="new 0 177 300 123" xml:space="preserve">
<path fill="#E3CCAF" d="M62.25,215.927c-0.039,1.946-0.458,3.696-1.261,5.243c-0.803,1.548-1.911,2.867-3.325,3.957
	c-1.414,1.088-3.077,1.919-4.988,2.492c-1.912,0.576-3.994,0.861-6.249,0.861c-0.879,0-1.892-0.049-3.038-0.146
	c-1.147-0.096-2.322-0.235-3.526-0.427c-1.204-0.192-2.379-0.452-3.525-0.778c-1.146-0.321-2.16-0.696-3.039-1.116
	c0.191-0.42,0.402-0.945,0.63-1.576c0.23-0.629,0.459-1.138,0.688-1.519l0.344,0.113c1.949,0.612,3.879,1.129,5.79,1.548
	c1.911,0.423,3.918,0.631,6.02,0.631c1.299,0,2.675-0.18,4.127-0.544c1.453-0.362,2.791-0.926,4.014-1.69
	c1.223-0.765,2.236-1.74,3.039-2.925c0.803-1.184,1.205-2.616,1.205-4.299c0-0.459-0.153-1.157-0.459-2.094s-0.917-1.871-1.834-2.81
	c-0.917-0.938-2.236-1.768-3.956-2.492c-1.72-0.728-3.994-1.09-6.822-1.09c-1.147,0-2.418-0.151-3.813-0.459
	c-1.396-0.307-2.704-0.805-3.927-1.492s-2.245-1.584-3.067-2.692c-0.822-1.106-1.232-2.465-1.232-4.069v-0.23
	c0.076-2.637,1.318-4.701,3.726-6.191c2.408-1.488,5.695-2.271,9.86-2.35c0.955,0,1.844,0.02,2.667,0.057
	c0.821,0.04,1.633,0.137,2.436,0.288c0.803,0.153,1.614,0.354,2.437,0.603c0.821,0.25,1.691,0.582,2.607,1.004l-0.974,3.095
	c-1.261-0.649-2.58-1.166-3.956-1.547c-1.376-0.384-3.115-0.575-5.217-0.575c-1.453,0-2.791,0.115-4.013,0.344
	c-1.224,0.231-2.284,0.585-3.182,1.062c-0.897,0.479-1.604,1.08-2.121,1.806c-0.516,0.728-0.773,1.567-0.773,2.522
	c0,0.916,0.276,1.729,0.831,2.437c0.554,0.708,1.252,1.31,2.093,1.808c0.84,0.496,1.777,0.867,2.809,1.116
	c1.032,0.249,2.025,0.373,2.981,0.373h0.516c1.72,0,3.498,0.229,5.332,0.687c1.834,0.459,3.506,1.169,5.017,2.123
	c1.509,0.957,2.742,2.16,3.697,3.61c0.956,1.452,1.434,3.153,1.434,5.104v0.228H62.25z"/>
<path fill="#E3CCAF" d="M88.053,228.252c-2.103,0-4.062-0.393-5.876-1.177c-1.816-0.783-3.393-1.833-4.729-3.153
	c-1.338-1.316-2.389-2.865-3.153-4.642c-0.765-1.778-1.146-3.661-1.146-5.649V190.07h3.325v23.561c0,1.569,0.287,3.038,0.86,4.413
	c0.573,1.378,1.376,2.573,2.408,3.584c1.032,1.013,2.254,1.817,3.669,2.409c1.413,0.594,2.961,0.89,4.644,0.89
	c1.643,0,3.201-0.296,4.672-0.89c1.47-0.592,2.751-1.396,3.841-2.409c1.089-1.011,1.949-2.206,2.579-3.584
	c0.631-1.375,0.947-2.844,0.947-4.413V190.07h3.324v23.561c0,1.988-0.411,3.871-1.233,5.649c-0.821,1.776-1.93,3.323-3.325,4.642
	c-1.395,1.32-3.029,2.37-4.901,3.153C92.085,227.859,90.117,228.252,88.053,228.252z"/>
<path fill="#E3CCAF" d="M147.743,190.07v38.354l-26.944-30.785v30.213h-3.325v-38.584l26.945,30.557v-29.752h3.324V190.07z"/>
<path fill="#E3CCAF" d="M188.308,215.927c-0.038,1.946-0.459,3.696-1.261,5.243c-0.801,1.548-1.912,2.867-3.325,3.957
	c-1.414,1.088-3.075,1.919-4.985,2.492c-1.912,0.576-3.994,0.861-6.25,0.861c-0.879,0-1.893-0.049-3.039-0.146
	c-1.146-0.096-2.321-0.235-3.526-0.427c-1.202-0.192-2.377-0.452-3.522-0.778c-1.146-0.321-2.16-0.696-3.039-1.116
	c0.189-0.42,0.4-0.945,0.629-1.576c0.229-0.629,0.461-1.138,0.688-1.519l0.345,0.113c1.948,0.612,3.879,1.129,5.788,1.548
	c1.912,0.423,3.917,0.631,6.021,0.631c1.3,0,2.677-0.18,4.129-0.544c1.451-0.362,2.789-0.926,4.014-1.69
	c1.223-0.765,2.234-1.74,3.038-2.925c0.804-1.184,1.205-2.616,1.205-4.299c0-0.459-0.154-1.157-0.46-2.094
	c-0.307-0.937-0.917-1.871-1.836-2.81c-0.915-0.938-2.234-1.768-3.954-2.492c-1.72-0.728-3.994-1.09-6.824-1.09
	c-1.146,0-2.415-0.151-3.812-0.459c-1.396-0.307-2.702-0.805-3.926-1.492c-1.226-0.688-2.246-1.584-3.066-2.692
	c-0.823-1.106-1.234-2.465-1.234-4.069v-0.23c0.076-2.637,1.318-4.701,3.729-6.191c2.408-1.488,5.693-2.271,9.861-2.35
	c0.951,0,1.842,0.02,2.664,0.057c0.82,0.04,1.633,0.137,2.438,0.288c0.802,0.153,1.615,0.354,2.438,0.603
	c0.819,0.25,1.688,0.582,2.607,1.004l-0.975,3.095c-1.26-0.649-2.58-1.166-3.957-1.547c-1.375-0.384-3.115-0.575-5.215-0.575
	c-1.455,0-2.791,0.115-4.015,0.344c-1.224,0.231-2.282,0.585-3.183,1.062c-0.896,0.479-1.604,1.08-2.12,1.806
	c-0.519,0.728-0.773,1.567-0.773,2.522c0,0.916,0.275,1.729,0.832,2.437c0.554,0.708,1.25,1.31,2.091,1.808
	c0.842,0.496,1.776,0.867,2.81,1.116c1.03,0.249,2.024,0.373,2.981,0.373h0.516c1.72,0,3.498,0.229,5.33,0.687
	c1.836,0.459,3.509,1.169,5.019,2.123c1.509,0.957,2.741,2.16,3.697,3.61c0.955,1.452,1.433,3.153,1.433,5.104v0.228H188.308z"/>
<path fill="#E3CCAF" d="M201.826,227.85v-20.693c-0.077,0-0.327-0.021-0.746-0.061c-0.422-0.037-0.938-0.133-1.549-0.285
	c-0.61-0.152-1.242-0.371-1.892-0.66c-0.649-0.284-1.239-0.678-1.778-1.176l2.408-2.291c0.383,0.307,0.86,0.562,1.434,0.772
	c0.574,0.212,1.281,0.336,2.123,0.372V190.07h26.715v3.324H205.15v10.434h20.178v3.327H205.15v17.37H229v3.324H201.826
	L201.826,227.85z"/>
<path fill="#E3CCAF" d="M266.395,190.07v3.324H252.98v34.455h-3.326v-34.455h-13.528v-3.324H266.395z"/>
<path fill="#E3CCAF" d="M93.688,273.168c-0.02,1.036-0.244,1.965-0.671,2.788c-0.426,0.825-1.016,1.524-1.768,2.104
	c-0.753,0.58-1.637,1.021-2.653,1.326c-1.018,0.307-2.125,0.456-3.323,0.456c-0.47,0-1.007-0.022-1.617-0.075
	c-0.61-0.05-1.235-0.127-1.875-0.229c-0.641-0.1-1.267-0.237-1.876-0.411c-0.61-0.172-1.148-0.37-1.617-0.592
	c0.102-0.226,0.214-0.507,0.336-0.841c0.121-0.334,0.244-0.604,0.365-0.808l0.184,0.062c1.036,0.323,2.062,0.598,3.079,0.821
	c1.017,0.225,2.083,0.336,3.202,0.336c0.691,0,1.422-0.097,2.196-0.291c0.772-0.193,1.483-0.491,2.134-0.898
	c0.65-0.406,1.189-0.925,1.616-1.555c0.427-0.631,0.64-1.393,0.64-2.287c0-0.244-0.082-0.613-0.244-1.113
	c-0.163-0.498-0.488-0.996-0.976-1.494c-0.488-0.498-1.189-0.939-2.104-1.326c-0.914-0.386-2.125-0.58-3.628-0.58
	c-0.61,0-1.286-0.08-2.028-0.242c-0.742-0.164-1.438-0.43-2.089-0.795s-1.194-0.842-1.631-1.432s-0.655-1.312-0.655-2.165v-0.124
	c0.041-1.4,0.701-2.5,1.982-3.294c1.281-0.792,3.029-1.208,5.245-1.248c0.508,0,0.98,0.013,1.417,0.029
	c0.437,0.021,0.87,0.071,1.296,0.153c0.427,0.08,0.859,0.188,1.297,0.32c0.437,0.131,0.899,0.311,1.387,0.533l-0.519,1.646
	c-0.67-0.348-1.372-0.62-2.104-0.824c-0.731-0.201-1.657-0.307-2.774-0.307c-0.772,0-1.484,0.063-2.135,0.186
	c-0.651,0.121-1.215,0.311-1.691,0.562c-0.479,0.256-0.855,0.575-1.129,0.961c-0.275,0.388-0.411,0.834-0.411,1.34
	c0,0.49,0.147,0.923,0.441,1.298c0.294,0.377,0.666,0.696,1.113,0.96c0.447,0.267,0.946,0.465,1.495,0.596
	c0.548,0.133,1.077,0.198,1.586,0.198h0.274c0.915,0,1.86,0.123,2.836,0.366c0.976,0.242,1.865,0.619,2.668,1.127
	c0.803,0.51,1.459,1.148,1.967,1.923c0.508,0.772,0.762,1.677,0.762,2.713V273.168L93.688,273.168z"/>
<path fill="#E3CCAF" d="M113.509,268.443v11.067h-1.769v-11.009c-0.041,0-0.173-0.01-0.396-0.029
	c-0.224-0.021-0.499-0.072-0.824-0.152c-0.325-0.081-0.661-0.198-1.006-0.352c-0.345-0.152-0.661-0.361-0.945-0.624l1.281-1.223
	c0.202,0.164,0.457,0.302,0.763,0.411c0.304,0.113,0.68,0.181,1.127,0.197v-7.315h8.812c0.732,0,1.454,0.074,2.166,0.229
	c0.712,0.152,1.347,0.401,1.906,0.746c0.559,0.346,1.011,0.81,1.356,1.387c0.345,0.58,0.519,1.308,0.519,2.183
	c0,0.608-0.097,1.188-0.289,1.737c-0.194,0.548-0.514,1.027-0.961,1.433c-0.448,0.407-1.042,0.729-1.785,0.962
	c-0.742,0.232-1.672,0.352-2.79,0.352H113.509L113.509,268.443z M113.509,261.184v5.549h7.135c0.651,0,1.23-0.033,1.739-0.106
	c0.507-0.069,0.935-0.201,1.281-0.396c0.345-0.192,0.609-0.473,0.792-0.838c0.183-0.367,0.274-0.846,0.274-1.434
	c0-1.059-0.331-1.784-0.991-2.184c-0.661-0.395-1.724-0.594-3.188-0.594h-7.042V261.184z"/>
<path fill="#E3CCAF" d="M151.555,268.473h-5.274l-5.367,11.038h-2.073l5.549-11.129c-0.345-0.062-0.731-0.17-1.158-0.321
	c-0.427-0.153-0.814-0.4-1.16-0.748l1.282-1.219c0.202,0.162,0.457,0.301,0.762,0.412c0.305,0.11,0.671,0.178,1.098,0.197l3.69-7.35
	l9.911,20.156h-1.98L151.555,268.473z M147.104,266.732h3.659l-1.83-3.75L147.104,266.732z"/>
<path fill="#E3CCAF" d="M189.765,277.102c-1.058,0.868-2.12,1.519-3.188,1.946c-1.064,0.431-2.252,0.646-3.551,0.646
	c-1.424,0-2.762-0.269-4.012-0.809c-1.25-0.537-2.336-1.275-3.263-2.21c-0.925-0.935-1.651-2.022-2.181-3.265
	c-0.528-1.24-0.793-2.551-0.793-3.934c0-1.422,0.265-2.76,0.793-4.01s1.256-2.344,2.181-3.277c0.927-0.936,2.013-1.674,3.263-2.213
	c1.25-0.537,2.588-0.807,4.012-0.807c1.076,0,2.104,0.167,3.078,0.502c0.977,0.337,2.016,0.891,3.111,1.663l-1.373,1.067
	c-0.794-0.567-1.562-0.954-2.314-1.158c-0.754-0.204-1.588-0.307-2.502-0.307c-1.181,0-2.283,0.226-3.308,0.672
	c-1.028,0.447-1.923,1.055-2.685,1.818c-0.765,0.764-1.369,1.672-1.816,2.719c-0.445,1.049-0.671,2.164-0.671,3.345
	c0,1.142,0.226,2.228,0.671,3.253c0.447,1.029,1.053,1.925,1.816,2.689c0.762,0.764,1.656,1.37,2.685,1.818
	c1.022,0.446,2.127,0.671,3.308,0.671c0.528,0,1.021-0.036,1.478-0.106c0.459-0.071,0.899-0.184,1.327-0.336
	c0.427-0.15,0.844-0.36,1.25-0.625c0.408-0.265,0.834-0.58,1.281-0.944L189.765,277.102z"/>
<path fill="#E3CCAF" d="M207.113,279.511v-11.009c-0.039,0-0.172-0.01-0.396-0.029c-0.224-0.021-0.498-0.072-0.821-0.152
	c-0.326-0.081-0.66-0.198-1.008-0.352c-0.346-0.152-0.66-0.361-0.943-0.624l1.28-1.223c0.202,0.164,0.457,0.302,0.763,0.411
	c0.305,0.113,0.682,0.181,1.127,0.197v-7.315h14.211v1.769h-12.44v5.549h10.733v1.771h-10.733v9.24h12.687v1.769L207.113,279.511
	L207.113,279.511z"/>
<rect x="33.84" y="246.826" fill="none" stroke="#E3CCAF" stroke-width="1.3282" stroke-miterlimit="10" width="232.861" height="46.484"/>
</svg>
